<?xml version="1.0" encoding="UTF-8"?>
<!DOCTYPE svg PUBLIC "-//W3C//DTD SVG 1.1//EN" "http://www.w3.org/Graphics/SVG/1.1/DTD/svg11.dtd">
<!-- Creator: CorelDRAW 2021 (64-Bit) -->
<svg xmlns="http://www.w3.org/2000/svg" xml:space="preserve" width="62.5614mm" height="90.3121mm" version="1.1" style="shape-rendering:geometricPrecision; text-rendering:geometricPrecision; image-rendering:optimizeQuality; fill-rule:evenodd; clip-rule:evenodd"
viewBox="0 0 1060.91 1531.5"
 xmlns:xlink="http://www.w3.org/1999/xlink"
 xmlns:xodm="http://www.corel.com/coreldraw/odm/2003">
 <defs>
  <style type="text/css">
   <![CDATA[
    .fil0 {fill:#DA1F24}
   ]]>
  </style>
 </defs>
 <g id="Layer_x0020_1">
  <metadata id="CorelCorpID_0Corel-Layer"/>
  <path class="fil0" d="M35.3 1437.94l293.48 -1113.09 -88.59 0 115.44 -324.85 110.08 351.7 322.16 77.86 220.14 923.54 52.9 0 -105.92 153.69 -112.97 -155.34 93.56 0 -201.24 -879.09 -261.25 -61.78 314.21 1120.93 -54.72 0 -82.97 -271.85 -171.23 0 0 268.31 -90.03 0 0 -102.38 51.19 0 -5.29 -164.17 -280.67 0 -68.85 171.23 12.36 90.03 -97.09 0 35.3 -84.73zm137.69 -316.86l439.54 0 0 51.19 -439.54 0 0 -51.19zm47.66 -162.4l344.22 0 0 51.19 -344.22 0 0 -51.19zm30.01 -150.05l284.2 0 0 51.19 -284.2 0 0 -51.19zm70.61 -235.66l142.98 0 0 51.19 -142.98 0 0 -51.19z"/>
 </g>
</svg>
