<svg xmlns="http://www.w3.org/2000/svg" xml:space="preserve" width="236.453" height="341.337" style="shape-rendering:geometricPrecision;text-rendering:geometricPrecision;image-rendering:optimizeQuality;fill-rule:evenodd;clip-rule:evenodd" viewBox="0 0 1060.91 1531.5"><path d="M35.3 1437.94 328.78 324.85h-88.59L355.63 0l110.08 351.7 322.16 77.86 220.14 923.54h52.9l-105.92 153.69-112.97-155.34h93.56L734.34 472.36l-261.25-61.78L787.3 1531.51h-54.72l-82.97-271.85H478.38v268.31h-90.03v-102.38h51.19l-5.29-164.17H153.58l-68.85 171.23 12.36 90.03H0l35.3-84.73zm137.69-316.86h439.54v51.19H172.99zm47.66-162.4h344.22v51.19H220.65zm30.01-150.05h284.2v51.19h-284.2zm70.61-235.66h142.98v51.19H321.27z" style="fill:#da1f24"/></svg>