<?xml version="1.0" encoding="UTF-8"?>
<!DOCTYPE svg PUBLIC "-//W3C//DTD SVG 1.1//EN" "http://www.w3.org/Graphics/SVG/1.1/DTD/svg11.dtd">
<!-- Creator: CorelDRAW 2021 (64-Bit) -->
<svg xmlns="http://www.w3.org/2000/svg" xml:space="preserve" width="38.5527mm" height="72.5985mm" version="1.1" style="shape-rendering:geometricPrecision; text-rendering:geometricPrecision; image-rendering:optimizeQuality; fill-rule:evenodd; clip-rule:evenodd"
viewBox="0 0 58.74 110.6"
 xmlns:xlink="http://www.w3.org/1999/xlink"
 xmlns:xodm="http://www.corel.com/coreldraw/odm/2003">
 <defs>
  <style type="text/css">
   <![CDATA[
    .fil0 {fill:#DA1F24}
   ]]>
  </style>
 </defs>
 <g id="Layer_x0020_1">
  <metadata id="CorelCorpID_0Corel-Layer"/>
  <polygon class="fil0" points="29.61,6.63 40.72,17.74 58.74,0 58.74,12.49 33.5,36.12 39.79,42.41 58.74,23.76 58.74,36.25 33.25,60.12 32.48,60.7 38.87,67.09 58.74,47.53 58.74,60.01 33.25,83.88 31.44,85.26 37.94,91.76 58.74,71.29 58.74,83.78 33.25,107.64 29.37,110.6 29.37,110.6 29.37,110.6 29.36,110.6 29.36,110.6 25.49,107.64 -0,83.78 -0,71.29 21.04,92 27.57,85.47 25.49,83.88 -0,60.01 -0,47.53 20.11,67.33 26.53,60.91 25.49,60.12 -0,36.25 -0,23.76 19.19,42.65 25.49,36.35 -0,12.49 -0,0 18.26,17.98 "/>
 </g>
</svg>
