<?xml version="1.0" encoding="UTF-8"?>
<!DOCTYPE svg PUBLIC "-//W3C//DTD SVG 1.1//EN" "http://www.w3.org/Graphics/SVG/1.1/DTD/svg11.dtd">
<!-- Creator: CorelDRAW 2021 (64-Bit) -->
<svg xmlns="http://www.w3.org/2000/svg" xml:space="preserve" width="87.5893mm" height="77.548mm" version="1.1" style="shape-rendering:geometricPrecision; text-rendering:geometricPrecision; image-rendering:optimizeQuality; fill-rule:evenodd; clip-rule:evenodd"
viewBox="0 0 3060.15 2709.34"
 xmlns:xlink="http://www.w3.org/1999/xlink"
 xmlns:xodm="http://www.corel.com/coreldraw/odm/2003">
 <defs>
  <style type="text/css">
   <![CDATA[
    .fil0 {fill:#DA1F24}
   ]]>
  </style>
 </defs>
 <g id="Layer_x0020_1">
  <metadata id="CorelCorpID_0Corel-Layer"/>
  <path class="fil0" d="M2680.33 1905.29l-623.63 -0.48 0 576.72 -132.5 154.4 0 -731.21 -142.38 -0.11 0 576.93 -132.52 154.4 0 -731.42 -142.36 -0.11 0 577.14 -132.52 154.4 0 -731.63 -142.38 -0.11 0 577.35 -132.51 154.4 0 -731.84 -142.37 -0.11 0 577.56 -132.51 154.4 0 -732.05 -142.37 -0.11 0 577.77 -132.52 154.4 0 -732.27 -142.36 -0.11 0 577.98 -132.52 154.4 0 -732.48 -142.37 -0.11 0 578.19 -132.51 154.4 0 -732.7 0 -8.16 48.41 -63.18 1403.76 -1831.89 1607.98 2119.01 0 590.33 -788.58 0 0 -585.91 299.58 0 0 105.72 -138.93 0 0 300.84 438.63 0 0 -367.72 -190.52 -256.97zm-235.9 -242.56l-1016.8 -1349.08 -994.64 1349.08 2011.45 0z"/>
  <polygon class="fil0" points="2038.77,1378.9 1524.47,696.54 1021.38,1378.9 "/>
 </g>
</svg>
