<?xml version="1.0" encoding="UTF-8"?>
<!DOCTYPE svg PUBLIC "-//W3C//DTD SVG 1.1//EN" "http://www.w3.org/Graphics/SVG/1.1/DTD/svg11.dtd">
<!-- Creator: CorelDRAW 2021 (64-Bit) -->
<svg xmlns="http://www.w3.org/2000/svg" xml:space="preserve" width="53.8304mm" height="60.472mm" version="1.1" style="shape-rendering:geometricPrecision; text-rendering:geometricPrecision; image-rendering:optimizeQuality; fill-rule:evenodd; clip-rule:evenodd"
viewBox="0 0 418.12 469.71"
 xmlns:xlink="http://www.w3.org/1999/xlink"
 xmlns:xodm="http://www.corel.com/coreldraw/odm/2003">
 <defs>
  <style type="text/css">
   <![CDATA[
    .fil0 {fill:#DA1F24;fill-rule:nonzero}
   ]]>
  </style>
 </defs>
 <g id="Layer_x0020_1">
  <metadata id="CorelCorpID_0Corel-Layer"/>
  <path class="fil0" d="M-0 14.44c0,-7.97 6.46,-14.44 14.44,-14.44 7.97,0 14.44,6.46 14.44,14.44l0 440.84c0,7.97 -6.46,14.44 -14.44,14.44 -7.97,0 -14.44,-6.47 -14.44,-14.44l0 -440.84z"/>
  <path class="fil0" d="M60.54 28.63c-3.95,-6.91 -1.55,-15.73 5.36,-19.68 6.91,-3.95 15.73,-1.55 19.68,5.36l125.47 219.04 114.3 -211.66c3.77,-7.01 12.5,-9.63 19.51,-5.86 7.01,3.77 9.63,12.5 5.86,19.51l-126.32 233.94c-1.22,2.54 -3.2,4.74 -5.82,6.25 -6.91,3.95 -15.73,1.56 -19.68,-5.36l-138.35 -241.52z"/>
  <path class="fil0" d="M225.84 455.27c0,7.97 -6.47,14.44 -14.44,14.44 -7.97,0 -14.44,-6.47 -14.44,-14.44l0 -192.28c0,-7.97 6.47,-14.44 14.44,-14.44 7.97,0 14.44,6.46 14.44,14.44l0 192.28z"/>
  <path class="fil0" d="M389.25 14.44c0,-7.97 6.47,-14.44 14.44,-14.44 7.97,0 14.44,6.46 14.44,14.44l0 440.84c0,7.97 -6.46,14.44 -14.44,14.44 -7.97,0 -14.44,-6.47 -14.44,-14.44l0 -440.84z"/>
 </g>
</svg>
