<?xml version="1.0" encoding="UTF-8"?>
<!DOCTYPE svg PUBLIC "-//W3C//DTD SVG 1.1//EN" "http://www.w3.org/Graphics/SVG/1.1/DTD/svg11.dtd">
<!-- Creator: CorelDRAW 2021 (64-Bit) -->
<svg xmlns="http://www.w3.org/2000/svg" xml:space="preserve" width="44.6095mm" height="47.8863mm" version="1.1" style="shape-rendering:geometricPrecision; text-rendering:geometricPrecision; image-rendering:optimizeQuality; fill-rule:evenodd; clip-rule:evenodd"
viewBox="0 0 282.74 303.51"
 xmlns:xlink="http://www.w3.org/1999/xlink"
 xmlns:xodm="http://www.corel.com/coreldraw/odm/2003">
 <defs>
  <style type="text/css">
   <![CDATA[
    .fil0 {fill:#DA1F24;fill-rule:nonzero}
   ]]>
  </style>
 </defs>
 <g id="Layer_x0020_1">
  <metadata id="CorelCorpID_0Corel-Layer"/>
  <path class="fil0" d="M-0 11.78c0,-6.5 5.28,-11.78 11.78,-11.78 6.5,0 11.78,5.28 11.78,11.78l0 179.76 116.66 -169.4c3.68,-5.34 11,-6.67 16.33,-2.99 1.39,0.96 2.5,2.16 3.33,3.51l0.02 -0.02 121.08 196.76c3.4,5.54 1.67,12.79 -3.87,16.2 -5.54,3.4 -12.79,1.67 -16.2,-3.86l-111.62 -181.39 -127.32 184.88c-2.04,3.53 -5.85,5.91 -10.21,5.91 -6.5,0 -11.78,-5.28 -11.78,-11.78l0 -217.57z"/>
  <path class="fil0" d="M159.73 291.82c-0.03,6.48 -5.3,11.71 -11.78,11.69 -6.48,-0.02 -11.71,-5.3 -11.69,-11.78l1.89 -262.97c0.02,-6.48 5.3,-11.71 11.78,-11.69 6.48,0.03 11.71,5.3 11.69,11.78l-1.89 262.97z"/>
 </g>
</svg>
