<?xml version="1.0" encoding="UTF-8"?>
<!DOCTYPE svg PUBLIC "-//W3C//DTD SVG 1.1//EN" "http://www.w3.org/Graphics/SVG/1.1/DTD/svg11.dtd">
<!-- Creator: CorelDRAW 2021 (64-Bit) -->
<svg xmlns="http://www.w3.org/2000/svg" xml:space="preserve" width="44.6045mm" height="52.9539mm" version="1.1" style="shape-rendering:geometricPrecision; text-rendering:geometricPrecision; image-rendering:optimizeQuality; fill-rule:evenodd; clip-rule:evenodd"
viewBox="0 0 286.07 339.62"
 xmlns:xlink="http://www.w3.org/1999/xlink"
 xmlns:xodm="http://www.corel.com/coreldraw/odm/2003">
 <defs>
  <style type="text/css">
   <![CDATA[
    .fil0 {fill:#DA1F24;fill-rule:nonzero}
   ]]>
  </style>
 </defs>
 <g id="Layer_x0020_1">
  <metadata id="CorelCorpID_0Corel-Layer"/>
  <path class="fil0" d="M258.1 1.92c5.5,-3.57 12.86,-2.01 16.44,3.49 3.57,5.5 2.01,12.86 -3.49,16.44l-219.1 142.75 222.2 0c6.58,0 11.92,5.34 11.92,11.92 0,4.82 -2.86,8.97 -6.98,10.85l-261.3 150.67c-5.68,3.26 -12.94,1.3 -16.2,-4.38 -3.26,-5.68 -1.3,-12.94 4.38,-16.2l223.75 -129.02 -217.84 0 0 -0.04c-3.89,-0 -7.69,-1.91 -9.96,-5.41 -3.57,-5.5 -2.01,-12.86 3.49,-16.44l252.69 -164.63z"/>
 </g>
</svg>
