<?xml version="1.0" encoding="UTF-8"?>
<!DOCTYPE svg PUBLIC "-//W3C//DTD SVG 1.1//EN" "http://www.w3.org/Graphics/SVG/1.1/DTD/svg11.dtd">
<!-- Creator: CorelDRAW 2021 (64-Bit) -->
<svg xmlns="http://www.w3.org/2000/svg" xml:space="preserve" width="66.9004mm" height="45.2685mm" version="1.1" style="shape-rendering:geometricPrecision; text-rendering:geometricPrecision; image-rendering:optimizeQuality; fill-rule:evenodd; clip-rule:evenodd"
viewBox="0 0 482.75 326.66"
 xmlns:xlink="http://www.w3.org/1999/xlink"
 xmlns:xodm="http://www.corel.com/coreldraw/odm/2003">
 <defs>
  <style type="text/css">
   <![CDATA[
    .fil0 {fill:#DA1F24;fill-rule:nonzero}
   ]]>
  </style>
 </defs>
 <g id="Layer_x0020_1">
  <metadata id="CorelCorpID_0Corel-Layer"/>
  <path class="fil0" d="M13.41 161.86c-7.41,0 -13.41,-6.01 -13.41,-13.41 0,-7.41 6.01,-13.41 13.41,-13.41l455.93 0c7.41,0 13.41,6.01 13.41,13.41 0,7.41 -6.01,13.41 -13.41,13.41l-455.93 0z"/>
  <path class="fil0" d="M13.41 244.26c-7.41,0 -13.41,-6.01 -13.41,-13.41 0,-7.41 6.01,-13.41 13.41,-13.41l455.93 0c7.41,0 13.41,6.01 13.41,13.41 0,7.41 -6.01,13.41 -13.41,13.41l-455.93 0z"/>
  <path class="fil0" d="M13.41 326.66c-7.41,0 -13.41,-6.01 -13.41,-13.41 0,-7.41 6.01,-13.41 13.41,-13.41l455.93 0c7.41,0 13.41,6.01 13.41,13.41 0,7.41 -6.01,13.41 -13.41,13.41l-455.93 0z"/>
  <path class="fil0" d="M136.87 13.41c0,-7.41 6.01,-13.41 13.41,-13.41 7.41,0 13.41,6.01 13.41,13.41l0 135.04c0,7.41 -6.01,13.41 -13.41,13.41 -7.41,0 -13.41,-6.01 -13.41,-13.41l0 -135.04z"/>
 </g>
</svg>
