<?xml version="1.0" encoding="UTF-8"?>
<!DOCTYPE svg PUBLIC "-//W3C//DTD SVG 1.1//EN" "http://www.w3.org/Graphics/SVG/1.1/DTD/svg11.dtd">
<!-- Creator: CorelDRAW 2021 (64-Bit) -->
<svg xmlns="http://www.w3.org/2000/svg" xml:space="preserve" width="38.33mm" height="58.6246mm" version="1.1" style="shape-rendering:geometricPrecision; text-rendering:geometricPrecision; image-rendering:optimizeQuality; fill-rule:evenodd; clip-rule:evenodd"
viewBox="0 0 121.5 185.83"
 xmlns:xlink="http://www.w3.org/1999/xlink"
 xmlns:xodm="http://www.corel.com/coreldraw/odm/2003">
 <defs>
  <style type="text/css">
   <![CDATA[
    .fil0 {fill:#DA1F24;fill-rule:nonzero}
   ]]>
  </style>
 </defs>
 <g id="Layer_x0020_1">
  <metadata id="CorelCorpID_0Corel-Layer"/>
  <path class="fil0" d="M9.23 50.42c-2.66,1.86 -6.31,1.21 -8.17,-1.45 -1.86,-2.66 -1.21,-6.31 1.45,-8.17l56.77 -39.74c2.66,-1.86 6.31,-1.21 8.17,1.45 0.74,1.06 1.08,2.28 1.06,3.48l-3.78 174.1c-0.06,3.24 -2.74,5.82 -5.98,5.75 -3.24,-0.06 -5.82,-2.74 -5.75,-5.98l3.53 -162.54 -47.29 33.1z"/>
  <path class="fil0" d="M120.3 171.67c1.97,2.58 1.48,6.27 -1.1,8.24 -2.58,1.97 -6.27,1.48 -8.24,-1.1l-55.1 -71.96c-1.97,-2.58 -1.48,-6.27 1.1,-8.24 2.58,-1.97 6.27,-1.48 8.24,1.1l55.1 71.96z"/>
 </g>
</svg>
