<svg xmlns="http://www.w3.org/2000/svg" xml:space="preserve" width="168.603" height="180.988" style="shape-rendering:geometricPrecision;text-rendering:geometricPrecision;image-rendering:optimizeQuality;fill-rule:evenodd;clip-rule:evenodd" viewBox="0 0 282.74 303.51"><defs><style>.fil0{fill:#da1f24;fill-rule:nonzero}</style></defs><g id="Layer_x0020_1"><path d="M0 11.78C0 5.28 5.28 0 11.78 0s11.78 5.28 11.78 11.78v179.76l116.66-169.4c3.68-5.34 11-6.67 16.33-2.99 1.39.96 2.5 2.16 3.33 3.51l.02-.02L280.98 219.4c3.4 5.54 1.67 12.79-3.87 16.2-5.54 3.4-12.79 1.67-16.2-3.86L149.29 50.35 21.97 235.23c-2.04 3.53-5.85 5.91-10.21 5.91-6.5 0-11.78-5.28-11.78-11.78V11.79z" class="fil0"/><path d="M159.73 291.82c-.03 6.48-5.3 11.71-11.78 11.69s-11.71-5.3-11.69-11.78l1.89-262.97c.02-6.48 5.3-11.71 11.78-11.69 6.48.03 11.71 5.3 11.69 11.78z" class="fil0"/></g></svg>