<?xml version="1.0" encoding="UTF-8"?>
<!DOCTYPE svg PUBLIC "-//W3C//DTD SVG 1.1//EN" "http://www.w3.org/Graphics/SVG/1.1/DTD/svg11.dtd">
<!-- Creator: CorelDRAW 2021 (64-Bit) -->
<svg xmlns="http://www.w3.org/2000/svg" xml:space="preserve" width="76.5664mm" height="31.4148mm" version="1.1" style="shape-rendering:geometricPrecision; text-rendering:geometricPrecision; image-rendering:optimizeQuality; fill-rule:evenodd; clip-rule:evenodd"
viewBox="0 0 505.81 207.53"
 xmlns:xlink="http://www.w3.org/1999/xlink"
 xmlns:xodm="http://www.corel.com/coreldraw/odm/2003">
 <defs>
  <style type="text/css">
   <![CDATA[
    .fil0 {fill:#DA1F24;fill-rule:nonzero}
   ]]>
  </style>
 </defs>
 <g id="Layer_x0020_1">
  <metadata id="CorelCorpID_0Corel-Layer"/>
  <path class="fil0" d="M12.28 189.99c-6.78,0 -12.28,-5.5 -12.28,-12.28 0,-6.78 5.5,-12.28 12.28,-12.28l170.7 0 0 -153.15c0,-6.78 5.5,-12.28 12.28,-12.28l152.9 0c6.78,0 12.28,5.5 12.28,12.28 0,6.78 -5.5,12.28 -12.28,12.28l-140.62 0 0 153.15c0,6.78 -5.5,12.28 -12.28,12.28l-182.98 0z"/>
  <path class="fil0" d="M252.91 82.21c-6.78,0 -12.28,-5.5 -12.28,-12.28 0,-6.78 5.5,-12.28 12.28,-12.28l240.63 0c6.78,0 12.28,5.5 12.28,12.28 0,6.78 -5.5,12.28 -12.28,12.28l-240.63 0z"/>
  <path class="fil0" d="M252.91 144.87c-6.78,0 -12.28,-5.5 -12.28,-12.28 0,-6.78 5.5,-12.28 12.28,-12.28l240.63 0c6.78,0 12.28,5.5 12.28,12.28 0,6.78 -5.5,12.28 -12.28,12.28l-240.63 0z"/>
  <path class="fil0" d="M252.91 207.53c-6.78,0 -12.28,-5.5 -12.28,-12.28 0,-6.78 5.5,-12.28 12.28,-12.28l240.63 0c6.78,0 12.28,5.5 12.28,12.28 0,6.78 -5.5,12.28 -12.28,12.28l-240.63 0z"/>
 </g>
</svg>
