<svg xmlns="http://www.w3.org/2000/svg" xml:space="preserve" width="248.907" height="204.504" style="shape-rendering:geometricPrecision;text-rendering:geometricPrecision;image-rendering:optimizeQuality;fill-rule:evenodd;clip-rule:evenodd" viewBox="0 0 365.64 300.41"><defs><style>.fil0{fill:#da1f24;fill-rule:nonzero}</style></defs><g id="Layer_x0020_1"><path d="M32.29 0h325.86v20.64H32.29zM355.32 48.17c5.7 0 10.32 4.62 10.32 10.32s-4.62 10.32-10.32 10.32H103.33l54.89 20.55c.38.12.75.25 1.11.42l189.66 71.01c5.32 1.98 8.03 7.9 6.05 13.22s-7.9 8.03-13.22 6.05l-184.58-69.11-101.16 85.99h251.08c5.7 0 10.32 4.62 10.32 10.32s-4.62 10.32-10.32 10.32H80.47v24.76c15.71.38 28.33 13.23 28.33 29.04 0 16.04-13 29.04-29.04 29.04s-29.04-13-29.04-29.04c0-8.02 3.25-15.28 8.5-20.53v-33.26H.01l135.16-114.9-88.88-33.28V48.18h309.04z" class="fil0"/></g></svg>