<?xml version="1.0" encoding="UTF-8"?>
<!DOCTYPE svg PUBLIC "-//W3C//DTD SVG 1.1//EN" "http://www.w3.org/Graphics/SVG/1.1/DTD/svg11.dtd">
<!-- Creator: CorelDRAW 2021 (64-Bit) -->
<svg xmlns="http://www.w3.org/2000/svg" xml:space="preserve" width="72.4721mm" height="32.7042mm" version="1.1" style="shape-rendering:geometricPrecision; text-rendering:geometricPrecision; image-rendering:optimizeQuality; fill-rule:evenodd; clip-rule:evenodd"
viewBox="0 0 767.82 346.49"
 xmlns:xlink="http://www.w3.org/1999/xlink"
 xmlns:xodm="http://www.corel.com/coreldraw/odm/2003">
 <defs>
  <style type="text/css">
   <![CDATA[
    .fil0 {fill:#DA1F24;fill-rule:nonzero}
   ]]>
  </style>
 </defs>
 <g id="Layer_x0020_1">
  <metadata id="CorelCorpID_0Corel-Layer"/>
  <path class="fil0" d="M36.31 325.67c-5.69,9.22 -17.78,12.08 -27,6.39 -9.22,-5.69 -12.07,-17.78 -6.38,-27 123.4,-199.55 249.37,-303.1 378.05,-305.03 128.76,-1.93 256.77,97.9 383.97,305.11 5.65,9.26 2.72,21.35 -6.54,27 -9.26,5.65 -21.35,2.72 -27,-6.54 -119.31,-194.36 -235.93,-288.05 -349.97,-286.34 -114.13,1.71 -229.2,98.95 -345.13,286.42z"/>
  <path class="fil0" d="M183.16 337.16c-5.69,9.22 -17.78,12.08 -27,6.39 -9.22,-5.69 -12.08,-17.78 -6.39,-27 73.06,-118.14 148.34,-179.47 225.94,-180.63 77.69,-1.16 154.25,57.96 229.6,180.71 5.65,9.26 2.72,21.35 -6.54,27 -9.26,5.65 -21.35,2.72 -27,-6.54 -67.46,-109.9 -132.62,-162.88 -195.6,-161.94 -63.06,0.94 -127.43,55.95 -193.02,162.02z"/>
 </g>
</svg>
