<svg xmlns="http://www.w3.org/2000/svg" xml:space="preserve" width="207.639" height="196.172" style="shape-rendering:geometricPrecision;text-rendering:geometricPrecision;image-rendering:optimizeQuality;fill-rule:evenodd;clip-rule:evenodd" viewBox="0 0 207.9 196.42"><defs><style>.fil0{fill:#da1f24;fill-rule:nonzero}</style></defs><g id="Layer_x0020_1"><path d="M0 7.03C0 3.15 3.15 0 7.03 0s7.03 3.15 7.03 7.03v182.35c0 3.88-3.15 7.03-7.03 7.03S0 193.26 0 189.38z" class="fil0"/><path d="M10.55 135.1c-3.35 1.94-7.65.8-9.59-2.55s-.8-7.65 2.55-9.59C49.24 96.32 92.35 72.7 127.33 62.82c37.92-10.7 66.69-5.77 80.05 27.01 1.46 3.6-.28 7.69-3.87 9.15-3.6 1.46-7.69-.28-9.15-3.87-9.86-24.2-32.7-27.38-63.24-18.76-33.48 9.45-75.68 32.6-120.58 58.76z" class="fil0"/><path d="M89.34 92.97a7.023 7.023 0 0 1-8.96-4.29 7.023 7.023 0 0 1 4.29-8.96c20.19-7.16 37.39-6.38 49.08-.74 6.07 2.93 10.74 7.18 13.74 12.38 3.05 5.29 4.28 11.43 3.4 18.03-1.5 11.22-9.23 23.79-24.81 35.37-3.11 2.31-7.5 1.65-9.81-1.46s-1.65-7.5 1.46-9.81c12.25-9.1 18.23-18.23 19.26-25.91.46-3.47-.13-6.62-1.64-9.24-1.56-2.72-4.18-5.02-7.69-6.72-8.59-4.14-21.92-4.47-38.31 1.34z" class="fil0"/></g></svg>