<?xml version="1.0" encoding="UTF-8"?>
<!DOCTYPE svg PUBLIC "-//W3C//DTD SVG 1.1//EN" "http://www.w3.org/Graphics/SVG/1.1/DTD/svg11.dtd">
<!-- Creator: CorelDRAW 2021 (64-Bit) -->
<svg xmlns="http://www.w3.org/2000/svg" xml:space="preserve" width="48.6833mm" height="50.8774mm" version="1.1" style="shape-rendering:geometricPrecision; text-rendering:geometricPrecision; image-rendering:optimizeQuality; fill-rule:evenodd; clip-rule:evenodd"
viewBox="0 0 196.07 204.9"
 xmlns:xlink="http://www.w3.org/1999/xlink"
 xmlns:xodm="http://www.corel.com/coreldraw/odm/2003">
 <defs>
  <style type="text/css">
   <![CDATA[
    .fil0 {fill:#DA1F24;fill-rule:nonzero}
   ]]>
  </style>
 </defs>
 <g id="Layer_x0020_1">
  <metadata id="CorelCorpID_0Corel-Layer"/>
  <path class="fil0" d="M29.8 192.38c-2.08,3.55 -6.65,4.74 -10.2,2.66 -3.55,-2.08 -4.74,-6.65 -2.66,-10.2l105.15 -179.38c2.08,-3.55 6.65,-4.74 10.2,-2.66 1.72,1.01 2.88,2.59 3.39,4.37l60.03 188.03c1.24,3.92 -0.93,8.11 -4.85,9.36 -3.92,1.24 -8.11,-0.93 -9.36,-4.85l-55 -172.28 -96.7 164.96z"/>
  <path class="fil0" d="M76.1 105.65c2.15,3.52 1.04,8.12 -2.48,10.26 -3.52,2.15 -8.12,1.04 -10.26,-2.48l-62.26 -102.07c-2.15,-3.52 -1.04,-8.12 2.48,-10.26 3.52,-2.15 8.12,-1.04 10.26,2.48l62.26 102.07z"/>
 </g>
</svg>
