<?xml version="1.0" encoding="UTF-8"?>
<!DOCTYPE svg PUBLIC "-//W3C//DTD SVG 1.1//EN" "http://www.w3.org/Graphics/SVG/1.1/DTD/svg11.dtd">
<!-- Creator: CorelDRAW 2021 (64-Bit) -->
<svg xmlns="http://www.w3.org/2000/svg" xml:space="preserve" width="54.9377mm" height="51.9039mm" version="1.1" style="shape-rendering:geometricPrecision; text-rendering:geometricPrecision; image-rendering:optimizeQuality; fill-rule:evenodd; clip-rule:evenodd"
viewBox="0 0 207.9 196.42"
 xmlns:xlink="http://www.w3.org/1999/xlink"
 xmlns:xodm="http://www.corel.com/coreldraw/odm/2003">
 <defs>
  <style type="text/css">
   <![CDATA[
    .fil0 {fill:#DA1F24;fill-rule:nonzero}
   ]]>
  </style>
 </defs>
 <g id="Layer_x0020_1">
  <metadata id="CorelCorpID_0Corel-Layer"/>
  <path class="fil0" d="M-0 7.03c0,-3.88 3.15,-7.03 7.03,-7.03 3.88,0 7.03,3.15 7.03,7.03l0 182.35c0,3.88 -3.15,7.03 -7.03,7.03 -3.88,0 -7.03,-3.15 -7.03,-7.03l0 -182.35z"/>
  <path class="fil0" d="M10.55 135.1c-3.35,1.94 -7.65,0.8 -9.59,-2.55 -1.94,-3.35 -0.8,-7.65 2.55,-9.59 45.73,-26.64 88.84,-50.26 123.82,-60.14 37.92,-10.7 66.69,-5.77 80.05,27.01 1.46,3.6 -0.28,7.69 -3.87,9.15 -3.6,1.46 -7.69,-0.28 -9.15,-3.87 -9.86,-24.2 -32.7,-27.38 -63.24,-18.76 -33.48,9.45 -75.68,32.6 -120.58,58.76z"/>
  <path class="fil0" d="M89.34 92.97c-3.66,1.29 -7.67,-0.63 -8.96,-4.29 -1.29,-3.66 0.63,-7.67 4.29,-8.96 20.19,-7.16 37.39,-6.38 49.08,-0.74 6.07,2.93 10.74,7.18 13.74,12.38 3.05,5.29 4.28,11.43 3.4,18.03 -1.5,11.22 -9.23,23.79 -24.81,35.37 -3.11,2.31 -7.5,1.65 -9.81,-1.46 -2.31,-3.11 -1.65,-7.5 1.46,-9.81 12.25,-9.1 18.23,-18.23 19.26,-25.91 0.46,-3.47 -0.13,-6.62 -1.64,-9.24 -1.56,-2.72 -4.18,-5.02 -7.69,-6.72 -8.59,-4.14 -21.92,-4.47 -38.31,1.34z"/>
 </g>
</svg>
