<?xml version="1.0" encoding="UTF-8"?>
<!DOCTYPE svg PUBLIC "-//W3C//DTD SVG 1.1//EN" "http://www.w3.org/Graphics/SVG/1.1/DTD/svg11.dtd">
<!-- Creator: CorelDRAW 2021 (64-Bit) -->
<svg xmlns="http://www.w3.org/2000/svg" xml:space="preserve" width="57.4059mm" height="43.3539mm" version="1.1" style="shape-rendering:geometricPrecision; text-rendering:geometricPrecision; image-rendering:optimizeQuality; fill-rule:evenodd; clip-rule:evenodd"
viewBox="0 0 352.77 266.42"
 xmlns:xlink="http://www.w3.org/1999/xlink"
 xmlns:xodm="http://www.corel.com/coreldraw/odm/2003">
 <defs>
  <style type="text/css">
   <![CDATA[
    .fil0 {fill:#DA1F24;fill-rule:nonzero}
   ]]>
  </style>
 </defs>
 <g id="Layer_x0020_1">
  <metadata id="CorelCorpID_0Corel-Layer"/>
  <path class="fil0" d="M21.23 254.93c-5.07,3.72 -12.21,2.62 -15.93,-2.45 -3.72,-5.07 -2.62,-12.21 2.45,-15.93l320.69 -234.35c5.07,-3.72 12.21,-2.62 15.93,2.45 3.72,5.07 2.62,12.21 -2.45,15.93l-320.69 234.35z"/>
  <path class="fil0" d="M9.49 119.77c-6.21,-1.06 -10.38,-6.95 -9.32,-13.16 1.06,-6.21 6.95,-10.38 13.16,-9.32l329.94 57.05c5.56,0.95 9.49,5.78 9.49,11.24l0.02 89.42c0,6.31 -5.12,11.42 -11.42,11.42 -6.31,0 -11.42,-5.11 -11.42,-11.42l0 -79.82 -320.44 -55.4z"/>
 </g>
</svg>
