<svg xmlns="http://www.w3.org/2000/svg" xml:space="preserve" width="273.91" height="123.606" style="shape-rendering:geometricPrecision;text-rendering:geometricPrecision;image-rendering:optimizeQuality;fill-rule:evenodd;clip-rule:evenodd" viewBox="0 0 767.82 346.49"><defs><style>.fil0{fill:#da1f24;fill-rule:nonzero}</style></defs><g id="Layer_x0020_1"><path d="M36.31 325.67c-5.69 9.22-17.78 12.08-27 6.39s-12.07-17.78-6.38-27C126.33 105.51 252.3 1.96 380.98.03c128.76-1.93 256.77 97.9 383.97 305.11 5.65 9.26 2.72 21.35-6.54 27s-21.35 2.72-27-6.54C612.1 131.24 495.48 37.55 381.44 39.26c-114.13 1.71-229.2 98.95-345.13 286.42z" class="fil0"/><path d="M183.16 337.16c-5.69 9.22-17.78 12.08-27 6.39s-12.08-17.78-6.39-27c73.06-118.14 148.34-179.47 225.94-180.63 77.69-1.16 154.25 57.96 229.6 180.71 5.65 9.26 2.72 21.35-6.54 27s-21.35 2.72-27-6.54c-67.46-109.9-132.62-162.88-195.6-161.94-63.06.94-127.43 55.95-193.02 162.02z" class="fil0"/></g></svg>