<svg xmlns="http://www.w3.org/2000/svg" xml:space="preserve" width="289.385" height="118.733" style="shape-rendering:geometricPrecision;text-rendering:geometricPrecision;image-rendering:optimizeQuality;fill-rule:evenodd;clip-rule:evenodd" viewBox="0 0 505.81 207.53"><defs><style>.fil0{fill:#da1f24;fill-rule:nonzero}</style></defs><g id="Layer_x0020_1"><path d="M12.28 189.99C5.5 189.99 0 184.49 0 177.71s5.5-12.28 12.28-12.28h170.7V12.28c0-6.78 5.5-12.28 12.28-12.28h152.9c6.78 0 12.28 5.5 12.28 12.28s-5.5 12.28-12.28 12.28H207.54v153.15c0 6.78-5.5 12.28-12.28 12.28z" class="fil0"/><path d="M252.91 82.21c-6.78 0-12.28-5.5-12.28-12.28s5.5-12.28 12.28-12.28h240.63c6.78 0 12.28 5.5 12.28 12.28s-5.5 12.28-12.28 12.28zM252.91 144.87c-6.78 0-12.28-5.5-12.28-12.28s5.5-12.28 12.28-12.28h240.63c6.78 0 12.28 5.5 12.28 12.28s-5.5 12.28-12.28 12.28zM252.91 207.53c-6.78 0-12.28-5.5-12.28-12.28s5.5-12.28 12.28-12.28h240.63c6.78 0 12.28 5.5 12.28 12.28s-5.5 12.28-12.28 12.28z" class="fil0"/></g></svg>