<?xml version="1.0" encoding="UTF-8"?>
<!DOCTYPE svg PUBLIC "-//W3C//DTD SVG 1.1//EN" "http://www.w3.org/Graphics/SVG/1.1/DTD/svg11.dtd">
<!-- Creator: CorelDRAW 2021 (64-Bit) -->
<svg xmlns="http://www.w3.org/2000/svg" xml:space="preserve" width="67.7694mm" height="45.5682mm" version="1.1" style="shape-rendering:geometricPrecision; text-rendering:geometricPrecision; image-rendering:optimizeQuality; fill-rule:evenodd; clip-rule:evenodd"
viewBox="0 0 493.05 331.53"
 xmlns:xlink="http://www.w3.org/1999/xlink"
 xmlns:xodm="http://www.corel.com/coreldraw/odm/2003">
 <defs>
  <style type="text/css">
   <![CDATA[
    .fil0 {fill:#DA1F24;fill-rule:nonzero}
   ]]>
  </style>
 </defs>
 <g id="Layer_x0020_1">
  <metadata id="CorelCorpID_0Corel-Layer"/>
  <path class="fil0" d="M479.52 304.48c7.47,0 13.52,6.06 13.52,13.52 0,7.47 -6.06,13.52 -13.52,13.52l-217.22 0c-7.47,0 -13.52,-6.06 -13.52,-13.52 0,-4.61 2.3,-8.67 5.82,-11.11l186.56 -149.88 -427.64 0c-7.47,0 -13.52,-6.06 -13.52,-13.52 0,-7.47 6.06,-13.52 13.52,-13.52l466 0 0 0.04c3.94,0 7.85,1.72 10.51,5.03 4.67,5.8 3.74,14.3 -2.06,18.96l-187.31 150.49 178.86 0z"/>
  <path class="fil0" d="M140.3 143.48c0,7.47 -6.06,13.52 -13.52,13.52 -7.47,0 -13.52,-6.06 -13.52,-13.52l0 -129.96c0,-7.47 6.06,-13.52 13.52,-13.52l349.04 0c7.47,0 13.52,6.06 13.52,13.52 0,7.47 -6.06,13.52 -13.52,13.52l-335.51 0 0 116.44z"/>
 </g>
</svg>
