<?xml version="1.0" encoding="UTF-8"?>
<!DOCTYPE svg PUBLIC "-//W3C//DTD SVG 1.1//EN" "http://www.w3.org/Graphics/SVG/1.1/DTD/svg11.dtd">
<!-- Creator: CorelDRAW 2021 (64-Bit) -->
<svg xmlns="http://www.w3.org/2000/svg" xml:space="preserve" width="65.8566mm" height="54.1083mm" version="1.1" style="shape-rendering:geometricPrecision; text-rendering:geometricPrecision; image-rendering:optimizeQuality; fill-rule:evenodd; clip-rule:evenodd"
viewBox="0 0 365.64 300.41"
 xmlns:xlink="http://www.w3.org/1999/xlink"
 xmlns:xodm="http://www.corel.com/coreldraw/odm/2003">
 <defs>
  <style type="text/css">
   <![CDATA[
    .fil0 {fill:#DA1F24;fill-rule:nonzero}
   ]]>
  </style>
 </defs>
 <g id="Layer_x0020_1">
  <metadata id="CorelCorpID_0Corel-Layer"/>
  <polygon class="fil0" points="32.29,0 358.15,0 358.15,20.64 32.29,20.64 "/>
  <path class="fil0" d="M355.32 48.17c5.7,0 10.32,4.62 10.32,10.32 0,5.7 -4.62,10.32 -10.32,10.32l-251.99 0 54.89 20.55c0.38,0.12 0.75,0.25 1.11,0.42l189.66 71.01c5.32,1.98 8.03,7.9 6.05,13.22 -1.98,5.32 -7.9,8.03 -13.22,6.05l-184.58 -69.11 -101.16 85.99 251.08 0c5.7,0 10.32,4.62 10.32,10.32 0,5.7 -4.62,10.32 -10.32,10.32l-226.69 0 0 24.76c15.71,0.38 28.33,13.23 28.33,29.04 0,16.04 -13,29.04 -29.04,29.04 -16.04,0 -29.04,-13 -29.04,-29.04 0,-8.02 3.25,-15.28 8.5,-20.53l0 -33.26 -59.21 0 135.16 -114.9 -88.88 -33.28 0 -21.23 309.04 0z"/>
 </g>
</svg>
