<?xml version="1.0" encoding="UTF-8"?>
<!DOCTYPE svg PUBLIC "-//W3C//DTD SVG 1.1//EN" "http://www.w3.org/Graphics/SVG/1.1/DTD/svg11.dtd">
<!-- Creator: CorelDRAW 2021 (64-Bit) -->
<svg xmlns="http://www.w3.org/2000/svg" xml:space="preserve" width="61.1939mm" height="40.4538mm" version="1.1" style="shape-rendering:geometricPrecision; text-rendering:geometricPrecision; image-rendering:optimizeQuality; fill-rule:evenodd; clip-rule:evenodd"
viewBox="0 0 260.42 172.16"
 xmlns:xlink="http://www.w3.org/1999/xlink"
 xmlns:xodm="http://www.corel.com/coreldraw/odm/2003">
 <defs>
  <style type="text/css">
   <![CDATA[
    .fil0 {fill:#DA1F24;fill-rule:nonzero}
   ]]>
  </style>
 </defs>
 <g id="Layer_x0020_1">
  <metadata id="CorelCorpID_0Corel-Layer"/>
  <path class="fil0" d="M0.59 10.88c-1.65,-4.03 0.27,-8.63 4.29,-10.29 4.03,-1.65 8.63,0.27 10.29,4.29l57.02 139.17 60.95 -139.32c1.74,-3.99 6.39,-5.82 10.38,-4.08 3.99,1.74 5.82,6.39 4.08,10.38l-68.42 156.38c-0.79,1.81 -2.26,3.33 -4.23,4.14 -4.03,1.65 -8.63,-0.27 -10.29,-4.29l-64.07 -156.38z"/>
  <path class="fil0" d="M127.33 167.27c-1.65,4.03 -6.26,5.95 -10.29,4.29 -4.03,-1.65 -5.95,-6.26 -4.29,-10.29l64.07 -156.38c1.65,-4.03 6.26,-5.95 10.29,-4.29 1.97,0.81 3.44,2.33 4.23,4.14l68.42 156.38c1.74,3.99 -0.09,8.64 -4.08,10.38 -3.99,1.74 -8.64,-0.09 -10.38,-4.08l-60.95 -139.32 -57.02 139.17z"/>
 </g>
</svg>
