<svg xmlns="http://www.w3.org/2000/svg" xml:space="preserve" width="216.967" height="163.857" style="shape-rendering:geometricPrecision;text-rendering:geometricPrecision;image-rendering:optimizeQuality;fill-rule:evenodd;clip-rule:evenodd" viewBox="0 0 352.77 266.42"><defs><style>.fil0{fill:#da1f24;fill-rule:nonzero}</style></defs><g id="Layer_x0020_1"><path d="M21.23 254.93c-5.07 3.72-12.21 2.62-15.93-2.45s-2.62-12.21 2.45-15.93L328.44 2.2c5.07-3.72 12.21-2.62 15.93 2.45s2.62 12.21-2.45 15.93z" class="fil0"/><path d="M9.49 119.77c-6.21-1.06-10.38-6.95-9.32-13.16s6.95-10.38 13.16-9.32l329.94 57.05c5.56.95 9.49 5.78 9.49 11.24l.02 89.42c0 6.31-5.12 11.42-11.42 11.42-6.31 0-11.42-5.11-11.42-11.42v-79.82L9.5 119.78z" class="fil0"/></g></svg>