<?xml version="1.0" encoding="UTF-8"?>
<!DOCTYPE svg PUBLIC "-//W3C//DTD SVG 1.1//EN" "http://www.w3.org/Graphics/SVG/1.1/DTD/svg11.dtd">
<!-- Creator: CorelDRAW 2021 (64-Bit) -->
<svg xmlns="http://www.w3.org/2000/svg" xml:space="preserve" width="42.7634mm" height="52.8641mm" version="1.1" style="shape-rendering:geometricPrecision; text-rendering:geometricPrecision; image-rendering:optimizeQuality; fill-rule:evenodd; clip-rule:evenodd"
viewBox="0 0 265.4 328.09"
 xmlns:xlink="http://www.w3.org/1999/xlink"
 xmlns:xodm="http://www.corel.com/coreldraw/odm/2003">
 <defs>
  <style type="text/css">
   <![CDATA[
    .fil0 {fill:#DA1F24;fill-rule:nonzero}
   ]]>
  </style>
 </defs>
 <g id="Layer_x0020_1">
  <metadata id="CorelCorpID_0Corel-Layer"/>
  <path class="fil0" d="M242.33 11.54c0,-6.37 5.17,-11.54 11.54,-11.54 6.37,0 11.54,5.17 11.54,11.54l0 302.3c0,6.37 -5.17,11.54 -11.54,11.54 -6.37,0 -11.54,-5.17 -11.54,-11.54l0 -302.3z"/>
  <path class="fil0" d="M152.46 16.98c0,-6.37 5.17,-11.54 11.54,-11.54 6.37,0 11.54,5.17 11.54,11.54l0 299.57c0,6.37 -5.17,11.54 -11.54,11.54 -4.66,0 -8.68,-2.77 -10.5,-6.75l-151.97 -263.24c-3.16,-5.5 -1.26,-12.52 4.24,-15.68 5.5,-3.16 12.52,-1.26 15.68,4.24l131.02 226.94 0 -256.62z"/>
 </g>
</svg>
