<?xml version="1.0" encoding="UTF-8"?>
<!DOCTYPE svg PUBLIC "-//W3C//DTD SVG 1.1//EN" "http://www.w3.org/Graphics/SVG/1.1/DTD/svg11.dtd">
<!-- Creator: CorelDRAW 2021 (64-Bit) -->
<svg xmlns="http://www.w3.org/2000/svg" xml:space="preserve" width="81.437mm" height="23.3276mm" version="1.1" style="shape-rendering:geometricPrecision; text-rendering:geometricPrecision; image-rendering:optimizeQuality; fill-rule:evenodd; clip-rule:evenodd"
viewBox="0 0 462.83 132.58"
 xmlns:xlink="http://www.w3.org/1999/xlink"
 xmlns:xodm="http://www.corel.com/coreldraw/odm/2003">
 <defs>
  <style type="text/css">
   <![CDATA[
    .fil0 {fill:#DA1F24;fill-rule:nonzero}
   ]]>
  </style>
 </defs>
 <g id="Layer_x0020_1">
  <metadata id="CorelCorpID_0Corel-Layer"/>
  <path class="fil0" d="M194.2 109.29c-4.08,4.15 -10.75,4.2 -14.89,0.12 -4.15,-4.08 -4.2,-10.75 -0.12,-14.89 47.17,-48.03 94.35,-71.83 141.56,-71.72 47.29,0.11 93.69,24.17 139.19,71.84 4.01,4.22 3.84,10.89 -0.37,14.9 -4.22,4.01 -10.88,3.84 -14.89,-0.37 -41.38,-43.35 -82.69,-65.22 -123.92,-65.32 -41.32,-0.1 -83.5,21.62 -126.54,65.45z"/>
  <path class="fil0" d="M261.23 129.43c-4.08,4.15 -10.75,4.2 -14.89,0.12 -4.15,-4.08 -4.2,-10.75 -0.12,-14.89 24.4,-24.85 49.04,-37.16 73.91,-37.11 24.95,0.06 49.22,12.53 72.79,37.23 4.01,4.22 3.84,10.88 -0.37,14.9 -4.22,4.01 -10.88,3.84 -14.9,-0.37 -19.45,-20.38 -38.63,-30.66 -57.53,-30.71 -18.98,-0.05 -38.61,10.19 -58.89,30.83z"/>
  <path class="fil0" d="M10.56 0l139.04 0c5.83,0 10.56,4.73 10.56,10.56l0 92.9c0,5.83 -4.73,10.56 -10.56,10.56l-139.04 0c-5.83,0 -10.56,-4.73 -10.56,-10.56l0 -92.9c0,-5.83 4.73,-10.56 10.56,-10.56zm128.47 21.13l-117.91 0 0 71.77 117.91 0 0 -71.77z"/>
 </g>
</svg>
