<?xml version="1.0" encoding="UTF-8"?>
<!DOCTYPE svg PUBLIC "-//W3C//DTD SVG 1.1//EN" "http://www.w3.org/Graphics/SVG/1.1/DTD/svg11.dtd">
<!-- Creator: CorelDRAW 2021 (64-Bit) -->
<svg xmlns="http://www.w3.org/2000/svg" xml:space="preserve" width="50.2816mm" height="48.4905mm" version="1.1" style="shape-rendering:geometricPrecision; text-rendering:geometricPrecision; image-rendering:optimizeQuality; fill-rule:evenodd; clip-rule:evenodd"
viewBox="0 0 172.7 166.55"
 xmlns:xlink="http://www.w3.org/1999/xlink"
 xmlns:xodm="http://www.corel.com/coreldraw/odm/2003">
 <defs>
  <style type="text/css">
   <![CDATA[
    .fil0 {fill:#DA1F24;fill-rule:nonzero}
   ]]>
  </style>
 </defs>
 <g id="Layer_x0020_1">
  <metadata id="CorelCorpID_0Corel-Layer"/>
  <path class="fil0" d="M172.7 160.17c0,3.52 -2.86,6.38 -6.38,6.38 -3.53,0 -6.38,-2.86 -6.38,-6.38l0 -34.11 -153.55 0c-3.53,0 -6.38,-2.86 -6.38,-6.38l0 -113.29c0,-3.52 2.86,-6.38 6.38,-6.38l157.37 0c3.53,0 6.38,2.86 6.38,6.38l0 57.41c0,3.53 -2.86,6.38 -6.38,6.38l-150.99 0 0 43.11 153.55 0c3.52,0 6.38,2.86 6.38,6.38l0 40.5zm-159.93 -147.4l0 44.64 144.6 0 0 -44.64 -144.6 0z"/>
 </g>
</svg>
