<?xml version="1.0" encoding="UTF-8"?>
<!DOCTYPE svg PUBLIC "-//W3C//DTD SVG 1.1//EN" "http://www.w3.org/Graphics/SVG/1.1/DTD/svg11.dtd">
<!-- Creator: CorelDRAW 2021 (64-Bit) -->
<svg xmlns="http://www.w3.org/2000/svg" xml:space="preserve" width="45.305mm" height="58.3205mm" version="1.1" style="shape-rendering:geometricPrecision; text-rendering:geometricPrecision; image-rendering:optimizeQuality; fill-rule:evenodd; clip-rule:evenodd"
viewBox="0 0 140.78 181.23"
 xmlns:xlink="http://www.w3.org/1999/xlink"
 xmlns:xodm="http://www.corel.com/coreldraw/odm/2003">
 <defs>
  <style type="text/css">
   <![CDATA[
    .fil0 {fill:#DA1F24;fill-rule:nonzero}
   ]]>
  </style>
 </defs>
 <g id="Layer_x0020_1">
  <metadata id="CorelCorpID_0Corel-Layer"/>
  <path class="fil0" d="M5.78 181.23c-3.19,0 -5.78,-2.59 -5.78,-5.78 0,-3.19 2.59,-5.78 5.78,-5.78l63.92 0 -3.06 -163.83c-0.05,-3.18 2.49,-5.79 5.66,-5.84 3.18,-0.05 5.79,2.49 5.84,5.66l3.16 169.17c0.02,0.2 0.03,0.41 0.03,0.62 0,3.19 -2.59,5.78 -5.78,5.78l-69.78 0z"/>
  <path class="fil0" d="M130.32 4.05c1.82,-2.6 5.4,-3.24 8.01,-1.42 2.6,1.82 3.24,5.4 1.42,8.01l-60.99 87.2c-1.82,2.6 -5.4,3.24 -8.01,1.42 -2.6,-1.82 -3.24,-5.4 -1.42,-8.01l60.99 -87.2z"/>
 </g>
</svg>
