<?xml version="1.0" encoding="UTF-8"?>
<!DOCTYPE svg PUBLIC "-//W3C//DTD SVG 1.1//EN" "http://www.w3.org/Graphics/SVG/1.1/DTD/svg11.dtd">
<!-- Creator: CorelDRAW 2021 (64-Bit) -->
<svg xmlns="http://www.w3.org/2000/svg" xml:space="preserve" width="85.4748mm" height="93.0851mm" version="1.1" style="shape-rendering:geometricPrecision; text-rendering:geometricPrecision; image-rendering:optimizeQuality; fill-rule:evenodd; clip-rule:evenodd"
viewBox="0 0 9158.55 9973.99"
 xmlns:xlink="http://www.w3.org/1999/xlink"
 xmlns:xodm="http://www.corel.com/coreldraw/odm/2003">
 <defs>
  <style type="text/css">
   <![CDATA[
    .fil0 {fill:#DA1F24}
   ]]>
  </style>
 </defs>
 <g id="Layer_x0020_1">
  <metadata id="CorelCorpID_0Corel-Layer"/>
  <path class="fil0" d="M8533.19 1152.96l0 241.42 625.37 1012.24 -1073.97 1786.66 -1131.18 -1789.26 699.01 -1009.63 -0.2 0 0 -241.42 -2670.69 0 3567.54 5655.88 -894.25 0 0 366.25 625.37 1012.25 -1073.97 1786.66 -1131.18 -1789.26 699.01 -1009.64 -0.2 0 0 -366.25 -1913.33 0 0 366.25 625.38 1012.25 -1073.98 1786.66 -1131.18 -1789.26 699.01 -1009.64 -0.2 0 0 -366.25 -2165.88 0 0 366.25 625.37 1012.25 -1073.98 1786.66 -1131.18 -1789.26 699.02 -1009.64 -0.2 0 0 -366.25 -932.66 0 4698.73 -6808.84 4024.36 0 43.5 1152.96 -233.4 0zm-4512.4 4486.24l0 -160.61 -463.95 -750.93 796.71 -1325.43 839.19 1327.35 -518.55 749.02 0.12 0 0 160.61 1904.58 0 -2195.59 -3352.86 -2195.55 3352.86 1833.04 0z"/>
 </g>
</svg>
