<?xml version="1.0" encoding="UTF-8"?>
<!DOCTYPE svg PUBLIC "-//W3C//DTD SVG 1.1//EN" "http://www.w3.org/Graphics/SVG/1.1/DTD/svg11.dtd">
<!-- Creator: CorelDRAW 2021 (64-Bit) -->
<svg xmlns="http://www.w3.org/2000/svg" xml:space="preserve" width="48.7578mm" height="68.9077mm" version="1.1" style="shape-rendering:geometricPrecision; text-rendering:geometricPrecision; image-rendering:optimizeQuality; fill-rule:evenodd; clip-rule:evenodd"
viewBox="0 0 339.17 479.33"
 xmlns:xlink="http://www.w3.org/1999/xlink"
 xmlns:xodm="http://www.corel.com/coreldraw/odm/2003">
 <defs>
  <style type="text/css">
   <![CDATA[
    .fil0 {fill:#DA1F24;fill-rule:nonzero}
   ]]>
  </style>
 </defs>
 <g id="Layer_x0020_1">
  <metadata id="CorelCorpID_0Corel-Layer"/>
  <path class="fil0" d="M193.61 466.4c0,7.14 -5.79,12.93 -12.93,12.93 -7.14,0 -12.93,-5.79 -12.93,-12.93l0 -254.44 -99.6 -91.09c-5.24,-4.79 -5.6,-12.94 -0.81,-18.18 0.3,-0.33 0.62,-0.64 0.95,-0.94l102.61 -98.19c5.02,-4.8 12.92,-4.73 17.85,0.08l0.02 -0.03 102.96 100.3c5.1,4.96 5.22,13.13 0.25,18.23l-0.57 0.55 -97.82 89.33 0 254.39zm-97.95 -355.24l85 77.73 83.29 -76.05 -84.27 -82.09 -84.03 80.4z"/>
  <path class="fil0" d="M12.93 264.54c-7.14,0 -12.93,-5.79 -12.93,-12.93 0,-7.14 5.79,-12.93 12.93,-12.93l313.31 0c7.14,0 12.93,5.79 12.93,12.93 0,7.14 -5.79,12.93 -12.93,12.93l-313.31 0z"/>
 </g>
</svg>
