<svg xmlns="http://www.w3.org/2000/svg" xml:space="preserve" width="243.656" height="306.931" style="shape-rendering:geometricPrecision;text-rendering:geometricPrecision;image-rendering:optimizeQuality;fill-rule:evenodd;clip-rule:evenodd" viewBox="0 0 1120.74 1411.78"><defs><style>.fil0{fill:#da1f24}</style></defs><g id="Layer_x0020_1"><g id="_2159232895232"><path d="M132.07 410.81 352.22 0l713.28 1284.42h-3.55l58.8 127.36H970.57l73.53-127.36H878.06l58.8 127.36H786.68l73.53-127.36H681.38l58.8 127.36H590l73.53-127.36H484.7l58.8 127.36H393.32l73.53-127.36H288.02l58.8 127.36H196.64l73.53-127.36H91.34l58.8 127.36H-.04l73.53-127.36h-.31l442.18-755.39-168.45-305.31-94.75 184.24h113.18L252.16 642.21l-120.13-231.4zm710.37 737.41L572.65 675.77l-268.46 472.45z" class="fil0"/><path d="M679.47 1052.15 557.08 798.16l-115.81 253.99z" class="fil0"/></g></g></svg>