<?xml version="1.0" encoding="UTF-8"?>
<!DOCTYPE svg PUBLIC "-//W3C//DTD SVG 1.1//EN" "http://www.w3.org/Graphics/SVG/1.1/DTD/svg11.dtd">
<!-- Creator: CorelDRAW 2021 (64-Bit) -->
<svg xmlns="http://www.w3.org/2000/svg" xml:space="preserve" width="64.4674mm" height="81.2087mm" version="1.1" style="shape-rendering:geometricPrecision; text-rendering:geometricPrecision; image-rendering:optimizeQuality; fill-rule:evenodd; clip-rule:evenodd"
viewBox="0 0 1120.74 1411.78"
 xmlns:xlink="http://www.w3.org/1999/xlink"
 xmlns:xodm="http://www.corel.com/coreldraw/odm/2003">
 <defs>
  <style type="text/css">
   <![CDATA[
    .fil0 {fill:#DA1F24}
   ]]>
  </style>
 </defs>
 <g id="Layer_x0020_1">
  <metadata id="CorelCorpID_0Corel-Layer"/>
  <g id="_2159232895232">
   <path class="fil0" d="M132.07 410.81l220.15 -410.81 713.28 1284.42 -3.55 0 58.8 127.36 -150.18 0 73.53 -127.36 -166.04 0 58.8 127.36 -150.18 0 73.53 -127.36 -178.83 0 58.8 127.36 -150.18 0 73.53 -127.36 -178.83 0 58.8 127.36 -150.18 0 73.53 -127.36 -178.83 0 58.8 127.36 -150.18 0 73.53 -127.36 -178.83 0 58.8 127.36 -150.18 0 73.53 -127.36 -0.31 0 442.18 -755.39 -168.45 -305.31 -94.75 184.24 113.18 0 -113.18 234.25 -120.13 -231.4zm710.37 737.41l-269.79 -472.45 -268.46 472.45 538.25 0z"/>
   <polygon class="fil0" points="679.47,1052.15 557.08,798.16 441.27,1052.15 "/>
  </g>
 </g>
</svg>
