<?xml version="1.0" encoding="UTF-8"?>
<!DOCTYPE svg PUBLIC "-//W3C//DTD SVG 1.1//EN" "http://www.w3.org/Graphics/SVG/1.1/DTD/svg11.dtd">
<!-- Creator: CorelDRAW 2021 (64-Bit) -->
<svg xmlns="http://www.w3.org/2000/svg" xml:space="preserve" width="90.0452mm" height="100.551mm" version="1.1" style="shape-rendering:geometricPrecision; text-rendering:geometricPrecision; image-rendering:optimizeQuality; fill-rule:evenodd; clip-rule:evenodd"
viewBox="0 0 3266.16 3647.25"
 xmlns:xlink="http://www.w3.org/1999/xlink"
 xmlns:xodm="http://www.corel.com/coreldraw/odm/2003">
 <defs>
  <style type="text/css">
   <![CDATA[
    .fil0 {fill:#DA1F24}
   ]]>
  </style>
 </defs>
 <g id="Layer_x0020_1">
  <metadata id="CorelCorpID_0Corel-Layer"/>
  <g id="_2159342374192">
   <polygon class="fil0" points="1633.04,671.84 828.23,1313.19 1134.36,1693.37 1465.17,1451.43 1465.17,2226.61 576.44,3085.71 1129.42,3638.7 1573.78,3011.66 1144.24,3011.66 1099.8,2942.53 1630.75,2412.9 2163.99,2951.07 2119.56,3020.2 1690.01,3020.2 2134.38,3647.25 2687.35,3094.25 1798.62,2235.15 1798.62,1459.98 2129.43,1701.91 2435.56,1321.74 "/>
   <polygon class="fil0" points="751.79,1823.72 1230.21,1866.89 902.86,2395.66 -0,1312.93 1633.08,0 3266.16,1312.93 2363.3,2395.66 2035.96,1866.89 2514.37,1823.72 2863.28,1359.7 1633.08,363.3 402.88,1359.7 "/>
  </g>
 </g>
</svg>
