<?xml version="1.0" encoding="UTF-8"?>
<!DOCTYPE svg PUBLIC "-//W3C//DTD SVG 1.1//EN" "http://www.w3.org/Graphics/SVG/1.1/DTD/svg11.dtd">
<!-- Creator: CorelDRAW 2021 (64-Bit) -->
<svg xmlns="http://www.w3.org/2000/svg" xml:space="preserve" width="59.5009mm" height="100.777mm" version="1.1" style="shape-rendering:geometricPrecision; text-rendering:geometricPrecision; image-rendering:optimizeQuality; fill-rule:evenodd; clip-rule:evenodd"
viewBox="0 0 1269.9 2150.83"
 xmlns:xlink="http://www.w3.org/1999/xlink"
 xmlns:xodm="http://www.corel.com/coreldraw/odm/2003">
 <defs>
  <style type="text/css">
   <![CDATA[
    .fil0 {fill:#DA1F24}
    .fil1 {fill:#DA1F24;fill-rule:nonzero}
   ]]>
  </style>
 </defs>
 <g id="Layer_x0020_1">
  <metadata id="CorelCorpID_0Corel-Layer"/>
  <g id="_2159342371792">
   <polygon class="fil0" points="633.45,0 -0,622.16 252.64,955.35 468.67,742.98 351.51,746.65 274.62,812.55 150.12,647.79 344.18,453.72 582.18,717.36 582.18,1035.9 51.26,1559.5 627.3,2150.83 1218.63,1559.5 687.72,1035.9 687.72,717.36 925.72,453.72 1119.78,647.79 995.28,812.55 918.39,746.65 801.23,742.98 1017.25,955.35 1269.9,622.16 "/>
   <path class="fil1" d="M650.12 170.19l207.59 207.6 -222.75 222.78 -222.77 -222.78 222.77 -222.77 15.16 15.17zm146.94 207.6l-162.1 -162.11 -162.11 162.11 162.11 162.11 162.1 -162.11z"/>
   <path class="fil1" d="M675.38 1239.14l342.56 342.57 -382.99 382.99 -382.99 -382.99 382.99 -382.98 40.43 40.42zm180.86 342.57l-221.29 -221.29 -221.29 221.29 221.29 221.29 221.29 -221.29z"/>
  </g>
 </g>
</svg>
