<?xml version="1.0" encoding="UTF-8"?>
<!DOCTYPE svg PUBLIC "-//W3C//DTD SVG 1.1//EN" "http://www.w3.org/Graphics/SVG/1.1/DTD/svg11.dtd">
<!-- Creator: CorelDRAW 2021 (64-Bit) -->
<svg xmlns="http://www.w3.org/2000/svg" xml:space="preserve" width="53.0428mm" height="99.5677mm" version="1.1" style="shape-rendering:geometricPrecision; text-rendering:geometricPrecision; image-rendering:optimizeQuality; fill-rule:evenodd; clip-rule:evenodd"
viewBox="0 0 121.51 228.08"
 xmlns:xlink="http://www.w3.org/1999/xlink"
 xmlns:xodm="http://www.corel.com/coreldraw/odm/2003">
 <defs>
  <style type="text/css">
   <![CDATA[
    .fil0 {fill:#DA1F24}
   ]]>
  </style>
 </defs>
 <g id="Layer_x0020_1">
  <metadata id="CorelCorpID_0Corel-Layer"/>
  <path class="fil0" d="M8.83 39.78l42.74 45.82 0 -27.36 -24.99 -23.36 34.21 -34.87 33.54 35.54 -24.32 23.73 0 26.24 42.66 -45.73 8.83 7.47 -51.49 52.79 0 24.36 42.66 -45.73 8.83 7.47 -51.49 52.79 0 24.36 42.66 -45.73 8.83 7.47 -51.49 52.79 0 24.36 42.66 -45.73 8.83 7.47 -61.1 64.18 -60.4 -64.18 8.83 -7.47 42.74 45.82 0 -24.36 -51.58 -52.87 8.83 -7.47 42.74 45.82 0 -24.36 -51.58 -52.87 8.83 -7.47 42.74 45.82 0 -24.36 -51.58 -52.87 8.83 -7.47zm51.92 -26.52l19.53 19.53 -19.53 19.53 -19.53 -19.53 19.53 -19.53z"/>
 </g>
</svg>
