<?xml version="1.0" encoding="UTF-8"?>
<!DOCTYPE svg PUBLIC "-//W3C//DTD SVG 1.1//EN" "http://www.w3.org/Graphics/SVG/1.1/DTD/svg11.dtd">
<!-- Creator: CorelDRAW 2021 (64-Bit) -->
<svg xmlns="http://www.w3.org/2000/svg" xml:space="preserve" width="105.516mm" height="77.1925mm" version="1.1" style="shape-rendering:geometricPrecision; text-rendering:geometricPrecision; image-rendering:optimizeQuality; fill-rule:evenodd; clip-rule:evenodd"
viewBox="0 0 2703.15 1977.54"
 xmlns:xlink="http://www.w3.org/1999/xlink"
 xmlns:xodm="http://www.corel.com/coreldraw/odm/2003">
 <defs>
  <style type="text/css">
   <![CDATA[
    .fil0 {fill:#DA1F24}
   ]]>
  </style>
 </defs>
 <g id="Layer_x0020_1">
  <metadata id="CorelCorpID_0Corel-Layer"/>
  <path class="fil0" d="M1351.57 1977.54l-669.39 -669.4 424.12 -424.12 0 -252.95 -444.56 -367.92 -380.69 385.8 242.72 270.83 214.61 -219.72 155.85 155.85 -360.25 375.58 -533.98 -559.54 654.07 -671.96 595.3 505.88 0 1144.63 102.2 120.08 102.2 -120.08 0 -1144.63 595.3 -505.88 654.07 671.96 -533.98 559.54 -360.25 -375.58 155.85 -155.85 214.61 219.72 242.72 -270.83 -380.69 -385.8 -444.56 367.92 0 252.95 424.12 424.12 -669.4 669.4zm442.01 -659.18l-186.52 -173.74 0 365.37 186.52 -191.62zm-884.02 0l186.52 -173.74 0 365.37 -186.52 -191.62z"/>
 </g>
</svg>
