<?xml version="1.0" encoding="UTF-8"?>
<!DOCTYPE svg PUBLIC "-//W3C//DTD SVG 1.1//EN" "http://www.w3.org/Graphics/SVG/1.1/DTD/svg11.dtd">
<!-- Creator: CorelDRAW 2021 (64-Bit) -->
<svg xmlns="http://www.w3.org/2000/svg" xml:space="preserve" width="84.2344mm" height="33.1389mm" version="1.1" style="shape-rendering:geometricPrecision; text-rendering:geometricPrecision; image-rendering:optimizeQuality; fill-rule:evenodd; clip-rule:evenodd"
viewBox="0 0 609.11 239.63"
 xmlns:xlink="http://www.w3.org/1999/xlink"
 xmlns:xodm="http://www.corel.com/coreldraw/odm/2003">
 <defs>
  <style type="text/css">
   <![CDATA[
    .fil0 {fill:#DA1F24;fill-rule:nonzero}
   ]]>
  </style>
 </defs>
 <g id="Layer_x0020_1">
  <metadata id="CorelCorpID_0Corel-Layer"/>
  <path class="fil0" d="M139.99 55.95c4.81,-5.63 13.27,-6.28 18.9,-1.47 5.63,4.81 6.28,13.27 1.47,18.9l-55.01 64.36 249.94 0c3.59,0 6.86,1.41 9.27,3.71 18.07,15.36 26.48,31.09 26.14,47.19 -0.35,16.3 -9.65,31.41 -26.95,45.49 -2.49,2.02 -5.48,3 -8.45,3l0 0.04 -341.85 0c-7.42,0 -13.44,-6.02 -13.44,-13.44 0,-7.42 6.02,-13.44 13.44,-13.44l336.96 0c8.72,-7.83 13.37,-15.24 13.51,-22.18 0.15,-7.01 -4.26,-14.82 -13.65,-23.49l-274.03 0 0 -0.04c-3.09,0 -6.19,-1.06 -8.71,-3.22 -5.62,-4.81 -6.28,-13.27 -1.47,-18.9l73.95 -86.51z"/>
  <path class="fil0" d="M391.38 25.28c-5.04,-5.42 -4.74,-13.91 0.68,-18.95 5.42,-5.04 13.91,-4.74 18.95,0.68l194.5 208.26c5.04,5.42 4.74,13.91 -0.68,18.95 -2.75,2.56 -6.28,3.74 -9.76,3.58l-184.6 1.83c-7.39,0.06 -13.43,-5.89 -13.49,-13.28 -0.06,-7.39 5.89,-13.43 13.28,-13.49l154.86 -1.54 -173.75 -186.04z"/>
  <path class="fil0" d="M456.27 233.51c-4.2,6.09 -12.55,7.62 -18.64,3.41 -6.09,-4.2 -7.62,-12.55 -3.41,-18.64l146.78 -212.5c4.2,-6.09 12.55,-7.62 18.64,-3.41 6.09,4.2 7.62,12.55 3.41,18.64l-146.78 212.5z"/>
 </g>
</svg>
