<?xml version="1.0" encoding="UTF-8"?>
<!DOCTYPE svg PUBLIC "-//W3C//DTD SVG 1.1//EN" "http://www.w3.org/Graphics/SVG/1.1/DTD/svg11.dtd">
<!-- Creator: CorelDRAW 2021 (64-Bit) -->
<svg xmlns="http://www.w3.org/2000/svg" xml:space="preserve" width="79.1987mm" height="81.3071mm" version="1.1" style="shape-rendering:geometricPrecision; text-rendering:geometricPrecision; image-rendering:optimizeQuality; fill-rule:evenodd; clip-rule:evenodd"
viewBox="0 0 273.98 281.27"
 xmlns:xlink="http://www.w3.org/1999/xlink"
 xmlns:xodm="http://www.corel.com/coreldraw/odm/2003">
 <defs>
  <style type="text/css">
   <![CDATA[
    .fil0 {fill:#DA1F24}
   ]]>
  </style>
 </defs>
 <g id="Layer_x0020_1">
  <metadata id="CorelCorpID_0Corel-Layer"/>
  <path class="fil0" d="M118.53 41.94l-18.24 -41.94 76.13 0 -18.69 43.76 56.53 0 -18.69 39.2 57.9 0 -20.51 42.4 41.03 0 0 38.75 -39.66 0 18.69 31.91 -55.16 0 17.32 41.94 -61.09 0 21.88 43.31 -79.32 0 23.71 -41.49 -57.9 0 17.78 -41.94 -56.98 0 19.15 -38.29 -42.39 -0.91 0 -39.21 41.94 0 -24.62 -37.38 62.91 0 -22.34 -40.12 60.63 0zm-39.28 98.7l57.75 -57.75 57.75 57.75 -57.75 57.75 -57.75 -57.75z"/>
 </g>
</svg>
