<?xml version="1.0" encoding="UTF-8"?>
<!DOCTYPE svg PUBLIC "-//W3C//DTD SVG 1.1//EN" "http://www.w3.org/Graphics/SVG/1.1/DTD/svg11.dtd">
<!-- Creator: CorelDRAW 2021 (64-Bit) -->
<svg xmlns="http://www.w3.org/2000/svg" xml:space="preserve" width="75.0241mm" height="36.1894mm" version="1.1" style="shape-rendering:geometricPrecision; text-rendering:geometricPrecision; image-rendering:optimizeQuality; fill-rule:evenodd; clip-rule:evenodd"
viewBox="0 0 396.36 191.19"
 xmlns:xlink="http://www.w3.org/1999/xlink"
 xmlns:xodm="http://www.corel.com/coreldraw/odm/2003">
 <defs>
  <style type="text/css">
   <![CDATA[
    .fil0 {fill:#DA1F24;fill-rule:nonzero}
   ]]>
  </style>
 </defs>
 <g id="Layer_x0020_1">
  <metadata id="CorelCorpID_0Corel-Layer"/>
  <path class="fil0" d="M9.82 19.64c-5.42,0 -9.82,-4.4 -9.82,-9.82 0,-5.42 4.4,-9.82 9.82,-9.82l376.72 0c5.42,0 9.82,4.4 9.82,9.82 0,5.42 -4.4,9.82 -9.82,9.82l-376.72 0z"/>
  <path class="fil0" d="M132.14 9.82c0,-5.42 4.4,-9.82 9.82,-9.82 5.42,0 9.82,4.4 9.82,9.82l0 171.55c0,5.42 -4.4,9.82 -9.82,9.82 -5.42,0 -9.82,-4.4 -9.82,-9.82l0 -171.55z"/>
  <path class="fil0" d="M265.44 9.82c0,-5.42 4.4,-9.82 9.82,-9.82 5.42,0 9.82,4.4 9.82,9.82l0 171.55c0,5.42 -4.4,9.82 -9.82,9.82 -5.42,0 -9.82,-4.4 -9.82,-9.82l0 -171.55z"/>
 </g>
</svg>
