<svg xmlns="http://www.w3.org/2000/svg" xml:space="preserve" width="283.556" height="136.779" style="shape-rendering:geometricPrecision;text-rendering:geometricPrecision;image-rendering:optimizeQuality;fill-rule:evenodd;clip-rule:evenodd" viewBox="0 0 396.36 191.19"><defs><style>.fil0{fill:#da1f24;fill-rule:nonzero}</style></defs><g id="Layer_x0020_1"><path d="M9.82 19.64C4.4 19.64 0 15.24 0 9.82S4.4 0 9.82 0h376.72c5.42 0 9.82 4.4 9.82 9.82s-4.4 9.82-9.82 9.82z" class="fil0"/><path d="M132.14 9.82c0-5.42 4.4-9.82 9.82-9.82s9.82 4.4 9.82 9.82v171.55c0 5.42-4.4 9.82-9.82 9.82s-9.82-4.4-9.82-9.82zM265.44 9.82c0-5.42 4.4-9.82 9.82-9.82s9.82 4.4 9.82 9.82v171.55c0 5.42-4.4 9.82-9.82 9.82s-9.82-4.4-9.82-9.82z" class="fil0"/></g></svg>