<svg xmlns="http://www.w3.org/2000/svg" xml:space="preserve" width="389.601" height="359.28" style="shape-rendering:geometricPrecision;text-rendering:geometricPrecision;image-rendering:optimizeQuality;fill-rule:evenodd;clip-rule:evenodd" viewBox="0 0 10911.88 10062.63"><path d="M5405.53 0 4108.22 1746.42l748.71 793.29 549.61 687 49.4-52.34 49.4 52.34 549.6-687 748.71-793.29L5506.35 0zm3327.48 10062.63 216.23-282.75 1962.64-2378.42-2062.42-2594.69-1912.75 2827.52-1414.73-1718.95h-132.1L3975.15 7634.29 2062.4 4806.77-.01 7401.46l1962.64 2378.42 216.22 282.75V6470.01l2428.31 2777.64V8233.06l515.64 382.53V7235.12l333.13-180.45 333.13 180.45v1380.47l515.63-382.53v1014.59L8733 6470.01v3592.62zM6870.18 3176.82l149.7 3426.24 1596.7-2262L6936.7 2029.17 5455.93 3822.58 3975.15 2029.17 2295.27 4341.06l1596.7 2262 149.7-3426.24c1810.45 1810.44 1018.04 1810.44 2828.49 0z" style="fill:#da1f24"/></svg>