<?xml version="1.0" encoding="UTF-8"?>
<!DOCTYPE svg PUBLIC "-//W3C//DTD SVG 1.1//EN" "http://www.w3.org/Graphics/SVG/1.1/DTD/svg11.dtd">
<!-- Creator: CorelDRAW 2021 (64-Bit) -->
<svg xmlns="http://www.w3.org/2000/svg" xml:space="preserve" width="76.8978mm" height="76.8977mm" version="1.1" style="shape-rendering:geometricPrecision; text-rendering:geometricPrecision; image-rendering:optimizeQuality; fill-rule:evenodd; clip-rule:evenodd"
viewBox="0 0 282.3 282.3"
 xmlns:xlink="http://www.w3.org/1999/xlink"
 xmlns:xodm="http://www.corel.com/coreldraw/odm/2003">
 <defs>
  <style type="text/css">
   <![CDATA[
    .fil0 {fill:#DA1F24}
   ]]>
  </style>
 </defs>
 <g id="Layer_x0020_1">
  <metadata id="CorelCorpID_0Corel-Layer"/>
  <path class="fil0" d="M53.82 106.22l-18.89 -18.89 17.47 -17.47 18.89 18.89 17.47 -17.47 -18.89 -18.89 17.47 -17.47 18.89 18.89 17.47 -17.47 -18.89 -18.89 17.47 -17.47 18.89 18.89 18.89 -18.89 17.47 17.47 -18.89 18.89 17.47 17.47 18.89 -18.89 17.47 17.47 -18.89 18.89 17.47 17.47 18.89 -18.89 17.47 17.47 -18.89 18.89 17.47 17.47 18.89 -18.89 17.47 17.47 -18.89 18.89 0 0 18.89 18.89 -17.47 17.47 -18.89 -18.89 -17.47 17.47 18.89 18.89 -17.47 17.47 -18.89 -18.89 -17.47 17.47 18.89 18.89 -17.47 17.47 -18.89 -18.89 -17.47 17.47 18.89 18.89 -17.47 17.47 -18.89 -18.89 0 -0 -18.89 18.89 -17.47 -17.47 18.89 -18.89 -17.47 -17.47 -18.89 18.89 -17.47 -17.47 18.89 -18.89 -17.47 -17.47 -18.89 18.89 -17.47 -17.47 18.89 -18.89 -17.47 -17.47 -18.89 18.89 -17.47 -17.47 18.89 -18.89 -18.89 -18.89 17.47 -17.47 18.89 18.89 17.47 -17.47zm-0.62 34.93l87.95 -87.95 87.95 87.95 -87.95 87.95 -87.95 -87.95z"/>
 </g>
</svg>
