<svg xmlns="http://www.w3.org/2000/svg" xml:space="preserve" width="290.637" height="290.637" style="shape-rendering:geometricPrecision;text-rendering:geometricPrecision;image-rendering:optimizeQuality;fill-rule:evenodd;clip-rule:evenodd" viewBox="0 0 282.3 282.3"><path d="M53.82 106.22 34.93 87.33 52.4 69.86l18.89 18.89 17.47-17.47-18.89-18.89 17.47-17.47 18.89 18.89 17.47-17.47-18.89-18.89L122.28-.02l18.89 18.89L160.06-.02l17.47 17.47-18.89 18.89 17.47 17.47L195 34.92l17.47 17.47-18.89 18.89 17.47 17.47 18.89-18.89 17.47 17.47-18.89 18.89 17.47 17.47 18.89-18.89 17.47 17.47-18.89 18.89 18.89 18.89-17.47 17.47-18.89-18.89-17.47 17.47 18.89 18.89-17.47 17.47-18.89-18.89-17.47 17.47 18.89 18.89L195 247.4l-18.89-18.89-17.47 17.47 18.89 18.89-17.47 17.47-18.89-18.89-18.89 18.89-17.47-17.47 18.89-18.89-17.47-17.47-18.89 18.89-17.47-17.47 18.89-18.89-17.47-17.47-18.89 18.89-17.47-17.47 18.89-18.89-17.47-17.47-18.89 18.89-17.47-17.47 18.89-18.89-18.89-18.89 17.47-17.47 18.89 18.89zm-.62 34.93 87.95-87.95 87.95 87.95-87.95 87.95z" style="fill:#da1f24"/></svg>