<svg xmlns="http://www.w3.org/2000/svg" xml:space="preserve" width="145.711" height="274.388" style="shape-rendering:geometricPrecision;text-rendering:geometricPrecision;image-rendering:optimizeQuality;fill-rule:evenodd;clip-rule:evenodd" viewBox="0 0 58.74 110.6"><path d="m29.61 6.63 11.11 11.11L58.74 0v12.49L33.5 36.12l6.29 6.29 18.95-18.65v12.49L33.25 60.12l-.77.58 6.39 6.39 19.87-19.56v12.48L33.25 83.88l-1.81 1.38 6.5 6.5 20.8-20.47v12.49l-25.49 23.86-3.88 2.96h-.01l-3.87-2.96L0 83.78V71.29L21.04 92l6.53-6.53-2.08-1.59L0 60.01V47.53l20.11 19.8 6.42-6.42-1.04-.79L0 36.25V23.76l19.19 18.89 6.3-6.3L0 12.49V0l18.26 17.98z" style="fill:#da1f24"/></svg>