<svg xmlns="http://www.w3.org/2000/svg" xml:space="preserve" width="331.046" height="293.095" style="shape-rendering:geometricPrecision;text-rendering:geometricPrecision;image-rendering:optimizeQuality;fill-rule:evenodd;clip-rule:evenodd" viewBox="0 0 3060.15 2709.34"><defs><style>.fil0{fill:#da1f24}</style></defs><g id="Layer_x0020_1"><path d="m2680.33 1905.29-623.63-.48v576.72l-132.5 154.4v-731.21l-142.38-.11v576.93l-132.52 154.4v-731.42l-142.36-.11v577.14l-132.52 154.4v-731.63l-142.38-.11v577.35l-132.51 154.4v-731.84l-142.37-.11v577.56l-132.51 154.4v-732.05l-142.37-.11v577.77l-132.52 154.4v-732.27l-142.36-.11v577.98l-132.52 154.4V1903.5l-142.37-.11v578.19L0 2635.98v-740.86l48.41-63.18L1452.17.05l1607.98 2119.01v590.33h-788.58v-585.91h299.58v105.72h-138.93v300.84h438.63v-367.72l-190.52-256.97zm-235.9-242.56L1427.63 313.65 432.99 1662.73h2011.45z" class="fil0"/><path d="m2038.77 1378.9-514.3-682.36-503.09 682.36z" class="fil0"/></g></svg>