<svg xmlns="http://www.w3.org/2000/svg" xml:space="preserve" width="307.793" height="88.167" style="shape-rendering:geometricPrecision;text-rendering:geometricPrecision;image-rendering:optimizeQuality;fill-rule:evenodd;clip-rule:evenodd" viewBox="0 0 462.83 132.58"><defs><style>.fil0{fill:#da1f24;fill-rule:nonzero}</style></defs><g id="Layer_x0020_1"><path d="M194.2 109.29c-4.08 4.15-10.75 4.2-14.89.12-4.15-4.08-4.2-10.75-.12-14.89 47.17-48.03 94.35-71.83 141.56-71.72 47.29.11 93.69 24.17 139.19 71.84 4.01 4.22 3.84 10.89-.37 14.9a10.535 10.535 0 0 1-14.89-.37c-41.38-43.35-82.69-65.22-123.92-65.32-41.32-.1-83.5 21.62-126.54 65.45z" class="fil0"/><path d="M261.23 129.43c-4.08 4.15-10.75 4.2-14.89.12-4.15-4.08-4.2-10.75-.12-14.89 24.4-24.85 49.04-37.16 73.91-37.11 24.95.06 49.22 12.53 72.79 37.23 4.01 4.22 3.84 10.88-.37 14.9-4.22 4.01-10.88 3.84-14.9-.37-19.45-20.38-38.63-30.66-57.53-30.71-18.98-.05-38.61 10.19-58.89 30.83M10.56 0H149.6c5.83 0 10.56 4.73 10.56 10.56v92.9c0 5.83-4.73 10.56-10.56 10.56H10.56C4.73 114.02 0 109.29 0 103.46v-92.9C0 4.73 4.73 0 10.56 0m128.47 21.13H21.12V92.9h117.91z" class="fil0"/></g></svg>