<svg xmlns="http://www.w3.org/2000/svg" xml:space="preserve" width="184" height="192.293" style="shape-rendering:geometricPrecision;text-rendering:geometricPrecision;image-rendering:optimizeQuality;fill-rule:evenodd;clip-rule:evenodd" viewBox="0 0 196.07 204.9"><defs><style>.fil0{fill:#da1f24;fill-rule:nonzero}</style></defs><g id="Layer_x0020_1"><path d="M29.8 192.38c-2.08 3.55-6.65 4.74-10.2 2.66s-4.74-6.65-2.66-10.2L122.09 5.46c2.08-3.55 6.65-4.74 10.2-2.66a7.4 7.4 0 0 1 3.39 4.37l60.03 188.03a7.465 7.465 0 0 1-4.85 9.36 7.465 7.465 0 0 1-9.36-4.85l-55-172.28-96.7 164.96z" class="fil0"/><path d="M76.1 105.65c2.15 3.52 1.04 8.12-2.48 10.26-3.52 2.15-8.12 1.04-10.26-2.48L1.1 11.36C-1.05 7.84.06 3.24 3.58 1.1 7.1-1.05 11.7.06 13.84 3.58z" class="fil0"/></g></svg>