<svg xmlns="http://www.w3.org/2000/svg" xml:space="preserve" width="203.453" height="228.556" style="shape-rendering:geometricPrecision;text-rendering:geometricPrecision;image-rendering:optimizeQuality;fill-rule:evenodd;clip-rule:evenodd" viewBox="0 0 418.12 469.71"><defs><style>.fil0{fill:#da1f24;fill-rule:nonzero}</style></defs><g id="Layer_x0020_1"><path d="M0 14.44C0 6.47 6.46 0 14.44 0c7.97 0 14.44 6.46 14.44 14.44v440.84c0 7.97-6.46 14.44-14.44 14.44-7.97 0-14.44-6.47-14.44-14.44zM60.54 28.63c-3.95-6.91-1.55-15.73 5.36-19.68s15.73-1.55 19.68 5.36l125.47 219.04 114.3-211.66c3.77-7.01 12.5-9.63 19.51-5.86s9.63 12.5 5.86 19.51L224.4 269.28c-1.22 2.54-3.2 4.74-5.82 6.25-6.91 3.95-15.73 1.56-19.68-5.36L60.55 28.65z" class="fil0"/><path d="M225.84 455.27c0 7.97-6.47 14.44-14.44 14.44s-14.44-6.47-14.44-14.44V262.99c0-7.97 6.47-14.44 14.44-14.44s14.44 6.46 14.44 14.44zM389.25 14.44c0-7.97 6.47-14.44 14.44-14.44s14.44 6.46 14.44 14.44v440.84c0 7.97-6.46 14.44-14.44 14.44-7.97 0-14.44-6.47-14.44-14.44z" class="fil0"/></g></svg>