<svg xmlns="http://www.w3.org/2000/svg" xml:space="preserve" width="171.231" height="220.424" style="shape-rendering:geometricPrecision;text-rendering:geometricPrecision;image-rendering:optimizeQuality;fill-rule:evenodd;clip-rule:evenodd" viewBox="0 0 140.78 181.23"><defs><style>.fil0{fill:#da1f24;fill-rule:nonzero}</style></defs><g id="Layer_x0020_1"><path d="M5.78 181.23c-3.19 0-5.78-2.59-5.78-5.78s2.59-5.78 5.78-5.78H69.7L66.64 5.84a5.752 5.752 0 0 1 11.5-.18l3.16 169.17c.02.2.03.41.03.62 0 3.19-2.59 5.78-5.78 5.78H5.77z" class="fil0"/><path d="M130.32 4.05c1.82-2.6 5.4-3.24 8.01-1.42 2.6 1.82 3.24 5.4 1.42 8.01l-60.99 87.2a5.755 5.755 0 0 1-8.01 1.42 5.755 5.755 0 0 1-1.42-8.01z" class="fil0"/></g></svg>