<svg xmlns="http://www.w3.org/2000/svg" xml:space="preserve" width="300.1" height="299.554" style="shape-rendering:geometricPrecision;text-rendering:geometricPrecision;image-rendering:optimizeQuality;fill-rule:evenodd;clip-rule:evenodd" viewBox="0 0 341.73 341.11"><path d="M0 0h341.73v341.11H0zm297.31 282.64 4.96-8.06V43.87H67.83l60.47 60.47 21.4-21.4 16.43 16.43-23.57 23.57 31.94 31.94 22.33-22.33 17.37 17.37-23.88 23.88 28.22 28.22 24.81-24.81 18.91 18.91-24.5 24.5 59.54 62.02zM42.79 63.88l-4.96 8.06v230.71h234.44l-60.47-60.47-21.4 21.4-16.43-16.43 23.57-23.57-31.94-31.94-22.33 22.33-17.37-17.37 23.88-23.88-28.22-28.22-24.81 24.81-18.91-18.91 24.5-24.5L42.8 63.88z" style="fill:#da1f24"/></svg>