<svg xmlns="http://www.w3.org/2000/svg" xml:space="preserve" width="308.53" height="324.813" style="shape-rendering:geometricPrecision;text-rendering:geometricPrecision;image-rendering:optimizeQuality;fill-rule:evenodd;clip-rule:evenodd" viewBox="0 0 8776.34 9239.53"><path d="m4404.2 1664.05 311.79 311.8 913.96-913.96-149.63-149.68-598.65-28.5L5765.39 0l801.72 787.52-1482.28 1482.29-37.44 37.44 848.07 848.07 874.72-874.77-149.63-149.68-598.65-28.5 883.72-883.71 801.72 787.52-1480.48 1480.54 751.84 751.84 860.49-860.52-149.63-149.68-598.65-28.5 883.71-883.71 801.73 787.52-1466.24 1466.28 16 16.01-85.45 85.49 1464.4 1464.4-801.72 787.53-883.72-883.72 598.65-28.49 149.63-149.68-858.64-858.65-751.85 751.85 1478.66 1478.65-801.73 787.53-883.71-883.72 598.65-28.49 149.63-149.68-872.89-872.89-848.07 848.03 35.6 35.61 1482.29 1482.28-801.73 787.53-883.71-883.72 598.65-28.49 149.63-149.68-912.13-912.13-242.35 242.35-231.74-231.7-890.77 890.77 149.63 149.68 598.64 28.49-883.71 883.72-801.73-787.53 1482.29-1482.28 14.25-14.26-848.03-848.07-851.58 851.59 149.63 149.68 598.64 28.49-883.71 883.72-801.73-787.53L2661.63 5765.3l-751.84-751.84-837.34 837.33 149.63 149.68 598.65 28.49-883.71 883.72-801.73-787.53 1443.09-1443.09-31.93-31.92-64.17-64.18L-.01 3103.67l801.73-787.52 883.71 883.71-598.65 28.5-149.63 149.68 876.53 876.53 751.84-751.85-14.25-14.25-1482.28-1482.29 801.72-787.52 883.72 883.71-598.65 28.5-149.63 149.68 890.77 890.77 848.03-848.03-53.44-53.49L2209.23 787.51 3010.95-.01l883.72 883.71-598.65 28.5-149.63 149.68 929.96 930 327.86-327.84zm101.82 1173.18 1748.72 1748.72L4404.19 6436.5 2553.63 4585.95 4404.19 2735.4l101.82 101.82zm1341.43 1748.72L4404.2 3142.7 2960.94 4585.95 4404.2 6029.2zM4404.2 4149.38l436.56 436.57-436.56 436.57-436.57-436.57z" style="fill:#da1f24"/></svg>