<svg xmlns="http://www.w3.org/2000/svg" xml:space="preserve" width="398.801" height="291.751" style="shape-rendering:geometricPrecision;text-rendering:geometricPrecision;image-rendering:optimizeQuality;fill-rule:evenodd;clip-rule:evenodd" viewBox="0 0 2703.15 1977.54"><path d="m1351.57 1977.54-669.39-669.4 424.12-424.12V631.07L661.74 263.15l-380.69 385.8 242.72 270.83 214.61-219.72 155.85 155.85-360.25 375.58L0 671.95 654.07-.01l595.3 505.88V1650.5l102.2 120.08 102.2-120.08V505.87L2049.07-.01l654.07 671.96-533.98 559.54-360.25-375.58 155.85-155.85 214.61 219.72 242.72-270.83-380.69-385.8-444.56 367.92v252.95l424.12 424.12-669.4 669.4zm442.01-659.18-186.52-173.74v365.37l186.52-191.62zm-884.02 0 186.52-173.74v365.37l-186.52-191.62z" style="fill:#da1f24"/></svg>