<svg xmlns="http://www.w3.org/2000/svg" xml:space="preserve" width="323.054" height="351.818" style="shape-rendering:geometricPrecision;text-rendering:geometricPrecision;image-rendering:optimizeQuality;fill-rule:evenodd;clip-rule:evenodd" viewBox="0 0 9158.55 9973.99"><path d="M8533.19 1152.96v241.42l625.37 1012.24-1073.97 1786.66-1131.18-1789.26 699.01-1009.63h-.2v-241.42H4981.53l3567.54 5655.88h-894.25v366.25l625.37 1012.25-1073.97 1786.66-1131.18-1789.26 699.01-1009.64h-.2v-366.25H4860.52v366.25l625.38 1012.25-1073.98 1786.66-1131.18-1789.26 699.01-1009.64h-.2v-366.25H1813.67v366.25l625.37 1012.25-1073.98 1786.66L233.88 8184.77 932.9 7175.13h-.2v-366.25H.04L4698.77.04h4024.36l43.5 1152.96h-233.4zM4020.79 5639.2v-160.61l-463.95-750.93 796.71-1325.43 839.19 1327.35-518.55 749.02h.12v160.61h1904.58L4383.3 2286.35 2187.75 5639.21h1833.04z" style="fill:#da1f24"/></svg>