<?xml version="1.0" encoding="UTF-8"?>
<!DOCTYPE svg PUBLIC "-//W3C//DTD SVG 1.1//EN" "http://www.w3.org/Graphics/SVG/1.1/DTD/svg11.dtd">
<!-- Creator: CorelDRAW 2021 (64-Bit) -->
<svg xmlns="http://www.w3.org/2000/svg" xml:space="preserve" width="61.0701mm" height="64.6927mm" version="1.1" style="shape-rendering:geometricPrecision; text-rendering:geometricPrecision; image-rendering:optimizeQuality; fill-rule:evenodd; clip-rule:evenodd"
viewBox="0 0 400.3 424.05"
 xmlns:xlink="http://www.w3.org/1999/xlink"
 xmlns:xodm="http://www.corel.com/coreldraw/odm/2003">
 <defs>
  <style type="text/css">
   <![CDATA[
    .fil0 {fill:#DA1F24;fill-rule:nonzero}
   ]]>
  </style>
 </defs>
 <g id="Layer_x0020_1">
  <metadata id="CorelCorpID_0Corel-Layer"/>
  <path class="fil0" d="M20.76 277.96c-4.73,4.76 -12.42,4.78 -17.18,0.05 -4.75,-4.73 -4.78,-12.42 -0.05,-17.18l255.27 -257.25c4.73,-4.75 12.42,-4.78 17.18,-0.05 4.75,4.73 4.78,12.42 0.05,17.18l-255.27 257.25z"/>
  <path class="fil0" d="M47.47 328.42c-4.73,4.75 -12.42,4.78 -17.18,0.05 -4.75,-4.73 -4.78,-12.42 -0.05,-17.18l255.27 -257.25c4.73,-4.75 12.42,-4.78 17.18,-0.05 4.75,4.73 4.78,12.42 0.05,17.18l-255.27 257.25z"/>
  <path class="fil0" d="M74.19 378.88c-4.73,4.75 -12.42,4.78 -17.18,0.05 -4.75,-4.73 -4.78,-12.42 -0.05,-17.18l255.27 -257.25c4.73,-4.75 12.42,-4.78 17.18,-0.05 4.75,4.73 4.78,12.42 0.05,17.18l-255.27 257.25z"/>
  <path class="fil0" d="M358.68 147.09c4.7,-4.78 12.4,-4.85 17.18,-0.14 4.78,4.7 4.85,12.39 0.14,17.18l-232.83 235.56 244.94 0c6.73,0 12.18,5.46 12.18,12.18 0,6.73 -5.46,12.18 -12.18,12.18l-274.07 0 0 -0.04c-3.07,0 -6.15,-1.16 -8.52,-3.49 -4.78,-4.7 -4.85,-12.4 -0.14,-17.18l253.29 -256.26z"/>
 </g>
</svg>
