<svg xmlns="http://www.w3.org/2000/svg" xml:space="preserve" width="252.852" height="171.094" style="shape-rendering:geometricPrecision;text-rendering:geometricPrecision;image-rendering:optimizeQuality;fill-rule:evenodd;clip-rule:evenodd" viewBox="0 0 482.75 326.66"><defs><style>.fil0{fill:#da1f24;fill-rule:nonzero}</style></defs><g id="Layer_x0020_1"><path d="M13.41 161.86C6 161.86 0 155.85 0 148.45c0-7.41 6.01-13.41 13.41-13.41h455.93c7.41 0 13.41 6.01 13.41 13.41 0 7.41-6.01 13.41-13.41 13.41zm0 82.4C6 244.26 0 238.25 0 230.85c0-7.41 6.01-13.41 13.41-13.41h455.93c7.41 0 13.41 6.01 13.41 13.41 0 7.41-6.01 13.41-13.41 13.41zm0 82.4C6 326.66 0 320.65 0 313.25c0-7.41 6.01-13.41 13.41-13.41h455.93c7.41 0 13.41 6.01 13.41 13.41 0 7.41-6.01 13.41-13.41 13.41z" class="fil0"/><path d="M136.87 13.41C136.87 6 142.88 0 150.28 0c7.41 0 13.41 6.01 13.41 13.41v135.04c0 7.41-6.01 13.41-13.41 13.41-7.41 0-13.41-6.01-13.41-13.41z" class="fil0"/></g></svg>