<svg xmlns="http://www.w3.org/2000/svg" xml:space="preserve" width="38.33mm" height="221.573" style="shape-rendering:geometricPrecision;text-rendering:geometricPrecision;image-rendering:optimizeQuality;fill-rule:evenodd;clip-rule:evenodd" viewBox="0 0 121.5 185.83"><defs><style>.fil0{fill:#da1f24;fill-rule:nonzero}</style></defs><g id="Layer_x0020_1"><path d="M9.23 50.42a5.86 5.86 0 0 1-8.17-1.45 5.86 5.86 0 0 1 1.45-8.17L59.28 1.06a5.86 5.86 0 0 1 8.17 1.45 5.9 5.9 0 0 1 1.06 3.48l-3.78 174.1a5.86 5.86 0 0 1-5.98 5.75 5.86 5.86 0 0 1-5.75-5.98l3.53-162.54-47.29 33.1z" class="fil0"/><path d="M120.3 171.67a5.879 5.879 0 0 1-9.34 7.14l-55.1-71.96a5.879 5.879 0 0 1 9.34-7.14z" class="fil0"/></g></svg>