<svg xmlns="http://www.w3.org/2000/svg" xml:space="preserve" width="161.625" height="199.801" style="shape-rendering:geometricPrecision;text-rendering:geometricPrecision;image-rendering:optimizeQuality;fill-rule:evenodd;clip-rule:evenodd" viewBox="0 0 265.4 328.09"><path d="M242.33 11.54C242.33 5.17 247.5 0 253.87 0s11.54 5.17 11.54 11.54v302.3c0 6.37-5.17 11.54-11.54 11.54s-11.54-5.17-11.54-11.54zm-89.87 5.44c0-6.37 5.17-11.54 11.54-11.54s11.54 5.17 11.54 11.54v299.57c0 6.37-5.17 11.54-11.54 11.54-4.66 0-8.68-2.77-10.5-6.75L1.53 58.1C-1.63 52.6.27 45.58 5.77 42.42s12.52-1.26 15.68 4.24L152.47 273.6V16.98z" style="fill:#da1f24;fill-rule:nonzero"/></svg>