<svg xmlns="http://www.w3.org/2000/svg" xml:space="preserve" width="238.389" height="178.021" style="shape-rendering:geometricPrecision;text-rendering:geometricPrecision;image-rendering:optimizeQuality;fill-rule:evenodd;clip-rule:evenodd" viewBox="0 0 425.77 317.95"><path d="M24.15 303.08c-6.23 4.44-15.51 3.74-20.72-1.57-5.21-5.3-4.39-13.2 1.84-17.64 12.21-8.7 29.49-23.01 49.72-39.75 28.5-23.6 62.64-51.87 97.42-76.75-43.58-31.54-85.08-67.78-112.94-92.11-12.42-10.85-22.01-19.22-27.58-23.49-6.04-4.63-6.53-12.55-1.09-17.69 5.43-5.14 14.74-5.56 20.78-.93 5.86 4.48 15.92 13.28 28.96 24.66 28.34 24.75 71.41 62.37 114.95 93.67 37.2-24.56 73.88-43.23 103.97-46.21 38.17-3.78 65.7 13.37 72.78 65.26.13 1 .12 1.98-.01 2.94-6.9 46.91-33.44 62.25-70.12 58.33-30.62-3.27-68.66-22.98-106.66-48.38-35.11 24.93-70.66 54.36-99.97 78.63-20.81 17.23-38.59 31.95-51.33 41.03M282.8 130.16c-23.17 2.29-52.81 17.12-84.02 37.38 32.05 21.08 62.96 36.81 86.91 39.37 18.73 2 32.61-7.32 37.1-35.07-4.85-32.6-19.8-43.68-39.98-41.68zM400.68 12.55C400.68 5.62 406.3 0 413.23 0s12.55 5.62 12.55 12.55v292.86c0 6.93-5.62 12.55-12.55 12.55s-12.55-5.62-12.55-12.55z" style="fill:#da1f24;fill-rule:nonzero"/></svg>