<svg xmlns="http://www.w3.org/2000/svg" xml:space="preserve" width="231.284" height="152.896" style="shape-rendering:geometricPrecision;text-rendering:geometricPrecision;image-rendering:optimizeQuality;fill-rule:evenodd;clip-rule:evenodd" viewBox="0 0 260.42 172.16"><path d="M.59 10.88A7.894 7.894 0 0 1 4.88.59c4.03-1.65 8.63.27 10.29 4.29l57.02 139.17L133.14 4.73c1.74-3.99 6.39-5.82 10.38-4.08s5.82 6.39 4.08 10.38L79.18 167.41a7.87 7.87 0 0 1-4.23 4.14 7.894 7.894 0 0 1-10.29-4.29zm126.74 156.39c-1.65 4.03-6.26 5.95-10.29 4.29-4.03-1.65-5.95-6.26-4.29-10.29L176.82 4.89c1.65-4.03 6.26-5.95 10.29-4.29 1.97.81 3.44 2.33 4.23 4.14l68.42 156.38c1.74 3.99-.09 8.64-4.08 10.38s-8.64-.09-10.38-4.08L184.35 28.1z" style="fill:#da1f24;fill-rule:nonzero"/></svg>