<?xml version="1.0" encoding="UTF-8"?>
<!DOCTYPE svg PUBLIC "-//W3C//DTD SVG 1.1//EN" "http://www.w3.org/Graphics/SVG/1.1/DTD/svg11.dtd">
<!-- Creator: CorelDRAW 2021 (64-Bit) -->
<svg xmlns="http://www.w3.org/2000/svg" xml:space="preserve" width="79.4014mm" height="79.257mm" version="1.1" style="shape-rendering:geometricPrecision; text-rendering:geometricPrecision; image-rendering:optimizeQuality; fill-rule:evenodd; clip-rule:evenodd"
viewBox="0 0 341.73 341.11"
 xmlns:xlink="http://www.w3.org/1999/xlink"
 xmlns:xodm="http://www.corel.com/coreldraw/odm/2003">
 <defs>
  <style type="text/css">
   <![CDATA[
    .fil0 {fill:#DA1F24}
   ]]>
  </style>
 </defs>
 <g id="Layer_x0020_1">
  <metadata id="CorelCorpID_0Corel-Layer"/>
  <path class="fil0" d="M-0 0l341.73 0 0 341.11 -341.73 0 0 -341.11zm297.31 282.64l4.96 -8.06 0 -230.71 -234.44 0 60.47 60.47 21.4 -21.4 16.43 16.43 -23.57 23.57 31.94 31.94 22.33 -22.33 17.37 17.37 -23.88 23.88 28.22 28.22 24.81 -24.81 18.91 18.91 -24.5 24.5 59.54 62.02zm-254.52 -218.76l-4.96 8.06 0 230.71 234.44 0 -60.47 -60.47 -21.4 21.4 -16.43 -16.43 23.57 -23.57 -31.94 -31.94 -22.33 22.33 -17.37 -17.37 23.88 -23.88 -28.22 -28.22 -24.81 24.81 -18.91 -18.91 24.5 -24.5 -59.54 -62.02z"/>
 </g>
</svg>
