<svg xmlns="http://www.w3.org/2000/svg" xml:space="preserve" width="184.281" height="260.439" style="shape-rendering:geometricPrecision;text-rendering:geometricPrecision;image-rendering:optimizeQuality;fill-rule:evenodd;clip-rule:evenodd" viewBox="0 0 339.17 479.33"><defs><style>.fil0{fill:#da1f24;fill-rule:nonzero}</style></defs><g id="Layer_x0020_1"><path d="M193.61 466.4c0 7.14-5.79 12.93-12.93 12.93s-12.93-5.79-12.93-12.93V211.96l-99.6-91.09c-5.24-4.79-5.6-12.94-.81-18.18.3-.33.62-.64.95-.94L170.9 3.56c5.02-4.8 12.92-4.73 17.85.08l.02-.03 102.96 100.3c5.1 4.96 5.22 13.13.25 18.23l-.57.55-97.82 89.33v254.39zM95.66 111.16l85 77.73 83.29-76.05-84.27-82.09-84.03 80.4z" class="fil0"/><path d="M12.93 264.54C5.79 264.54 0 258.75 0 251.61s5.79-12.93 12.93-12.93h313.31c7.14 0 12.93 5.79 12.93 12.93s-5.79 12.93-12.93 12.93z" class="fil0"/></g></svg>