<?xml version="1.0" encoding="UTF-8"?>
<!DOCTYPE svg PUBLIC "-//W3C//DTD SVG 1.1//EN" "http://www.w3.org/Graphics/SVG/1.1/DTD/svg11.dtd">
<!-- Creator: CorelDRAW 2021 (64-Bit) -->
<svg xmlns="http://www.w3.org/2000/svg" xml:space="preserve" width="51.5255mm" height="47.1015mm" version="1.1" style="shape-rendering:geometricPrecision; text-rendering:geometricPrecision; image-rendering:optimizeQuality; fill-rule:evenodd; clip-rule:evenodd"
viewBox="0 0 218.91 200.11"
 xmlns:xlink="http://www.w3.org/1999/xlink"
 xmlns:xodm="http://www.corel.com/coreldraw/odm/2003">
 <defs>
  <style type="text/css">
   <![CDATA[
    .fil0 {fill:#DA1F24;fill-rule:nonzero}
   ]]>
  </style>
 </defs>
 <g id="Layer_x0020_1">
  <metadata id="CorelCorpID_0Corel-Layer"/>
  <path class="fil0" d="M-0 7.9c0,-4.36 3.54,-7.9 7.9,-7.9 4.36,0 7.9,3.54 7.9,7.9l0 184.32c0,4.36 -3.54,7.9 -7.9,7.9 -4.36,0 -7.9,-3.54 -7.9,-7.9l0 -184.32z"/>
  <path class="fil0" d="M46.99 20.48c-2.79,-3.34 -2.35,-8.31 0.99,-11.1 3.34,-2.79 8.31,-2.35 11.1,0.99 5.47,6.54 14.48,15.81 25.02,26.64 14.85,15.27 32.64,33.57 48.31,52.21 19.85,-23.35 42.66,-45.59 57.98,-60.52 6.83,-6.66 12.1,-11.79 14.78,-14.78 2.91,-3.24 7.9,-3.5 11.14,-0.59 3.24,2.91 3.5,7.9 0.59,11.14 -2.82,3.14 -8.36,8.53 -15.52,15.52 -15.58,15.18 -39.25,38.27 -58.96,61.6 15.46,19.93 27.21,39.59 29.08,55.72 2.38,20.45 -8.42,35.2 -41.07,39 -0.63,0.07 -1.25,0.07 -1.85,-0.01 -29.53,-3.7 -39.18,-17.92 -36.71,-37.57 2.06,-16.41 14.46,-36.79 30.45,-57.16 -15.69,-18.81 -34.22,-37.86 -49.49,-53.57 -10.84,-11.15 -20.11,-20.68 -25.82,-27.51zm108.83 138.6c-1.44,-12.41 -10.78,-28.3 -23.52,-45.02 -13.27,17.18 -23.17,33.74 -24.78,46.57 -1.26,10.03 4.61,17.47 22.07,19.88 20.52,-2.6 27.49,-10.61 26.23,-21.43z"/>
 </g>
</svg>
