<svg xmlns="http://www.w3.org/2000/svg" xml:space="preserve" width="340.328" height="380.035" style="shape-rendering:geometricPrecision;text-rendering:geometricPrecision;image-rendering:optimizeQuality;fill-rule:evenodd;clip-rule:evenodd" viewBox="0 0 3266.16 3647.25"><defs><style>.fil0{fill:#da1f24}</style></defs><g id="Layer_x0020_1"><g id="_2159342374192"><path d="m1633.04 671.84-804.81 641.35 306.13 380.18 330.81-241.94v775.18l-888.73 859.1 552.98 552.99 444.36-627.04h-429.54l-44.44-69.13 530.95-529.63 533.24 538.17-44.43 69.13h-429.55l444.37 627.05 552.97-553-888.73-859.1v-775.17l330.81 241.93 306.13-380.17z" class="fil0"/><path d="m751.79 1823.72 478.42 43.17-327.35 528.77L0 1312.93 1633.08 0l1633.08 1312.93-902.86 1082.73-327.34-528.77 478.41-43.17 348.91-464.02-1230.2-996.4-1230.2 996.4z" class="fil0"/></g></g></svg>