<svg xmlns="http://www.w3.org/2000/svg" xml:space="preserve" width="224.885" height="380.889" style="shape-rendering:geometricPrecision;text-rendering:geometricPrecision;image-rendering:optimizeQuality;fill-rule:evenodd;clip-rule:evenodd" viewBox="0 0 1269.9 2150.83"><path d="M633.45 0 0 622.16l252.64 333.19 216.03-212.37-117.16 3.67-76.89 65.9-124.5-164.76 194.06-194.07 238 263.64v318.54L51.26 1559.5l576.04 591.33 591.33-591.33-530.91-523.6V717.36l238-263.64 194.06 194.07-124.5 164.76-76.89-65.9-117.16-3.67 216.02 212.37 252.65-333.19z" style="fill:#da1f24"/><path d="m650.12 170.19 207.59 207.6-222.75 222.78-222.77-222.78 222.77-222.77zm146.94 207.6-162.1-162.11-162.11 162.11L634.96 539.9zm-121.68 861.35 342.56 342.57-382.99 382.99-382.99-382.99 382.99-382.98 40.43 40.42zm180.86 342.57-221.29-221.29-221.29 221.29L634.95 1803z" style="fill:#da1f24;fill-rule:nonzero"/></svg>