<svg xmlns="http://www.w3.org/2000/svg" xml:space="preserve" width="200.477" height="376.319" style="shape-rendering:geometricPrecision;text-rendering:geometricPrecision;image-rendering:optimizeQuality;fill-rule:evenodd;clip-rule:evenodd" viewBox="0 0 121.51 228.08"><path d="M8.83 39.78 51.57 85.6V58.24L26.58 34.88 60.79.01l33.54 35.54-24.32 23.73v26.24l42.66-45.73 8.83 7.47-51.49 52.79v24.36l42.66-45.73 8.83 7.47-51.49 52.79v24.36l42.66-45.73 8.83 7.47-51.49 52.79v24.36l42.66-45.73 8.83 7.47-61.1 64.18L0 163.93l8.83-7.47 42.74 45.82v-24.36L-.01 125.05l8.83-7.47 42.74 45.82v-24.36L-.02 86.17l8.83-7.47 42.74 45.82v-24.36L-.03 47.29l8.83-7.47zm51.92-26.52 19.53 19.53-19.53 19.53-19.53-19.53z" style="fill:#da1f24"/></svg>