<svg xmlns="http://www.w3.org/2000/svg" xml:space="preserve" width="318.366" height="125.249" style="shape-rendering:geometricPrecision;text-rendering:geometricPrecision;image-rendering:optimizeQuality;fill-rule:evenodd;clip-rule:evenodd" viewBox="0 0 609.11 239.63"><defs><style>.fil0{fill:#da1f24;fill-rule:nonzero}</style></defs><g id="Layer_x0020_1"><path d="M139.99 55.95c4.81-5.63 13.27-6.28 18.9-1.47s6.28 13.27 1.47 18.9l-55.01 64.36h249.94c3.59 0 6.86 1.41 9.27 3.71 18.07 15.36 26.48 31.09 26.14 47.19-.35 16.3-9.65 31.41-26.95 45.49-2.49 2.02-5.48 3-8.45 3v.04H13.45c-7.42 0-13.44-6.02-13.44-13.44s6.02-13.44 13.44-13.44h336.96c8.72-7.83 13.37-15.24 13.51-22.18.15-7.01-4.26-14.82-13.65-23.49H76.24v-.04c-3.09 0-6.19-1.06-8.71-3.22-5.62-4.81-6.28-13.27-1.47-18.9l73.95-86.51zm251.39-30.67c-5.04-5.42-4.74-13.91.68-18.95s13.91-4.74 18.95.68l194.5 208.26c5.04 5.42 4.74 13.91-.68 18.95a13.37 13.37 0 0 1-9.76 3.58l-184.6 1.83c-7.39.06-13.43-5.89-13.49-13.28s5.89-13.43 13.28-13.49l154.86-1.54L391.37 25.28z" class="fil0"/><path d="M456.27 233.51c-4.2 6.09-12.55 7.62-18.64 3.41-6.09-4.2-7.62-12.55-3.41-18.64L581 5.78c4.2-6.09 12.55-7.62 18.64-3.41 6.09 4.2 7.62 12.55 3.41 18.64z" class="fil0"/></g></svg>